<svg width="20" height="21" viewBox="0 0 20 21" xmlns="http://www.w3.org/2000/svg">
    <path
        d="M13.8574 8.63024L13.1525 7.94032C13.0574 7.84729 12.9386 7.80078 12.804 7.80078C12.6693 7.80078 12.5505 7.84729 12.4554 7.94032L9.06535 11.2581L7.55248 9.76977C7.45743 9.67675 7.33861 9.63024 7.20396 9.63024C7.06931 9.63024 6.9505 9.67675 6.85545 9.76977L6.1505 10.4597C6.04752 10.5527 6 10.669 6 10.8008C6 10.9326 6.04752 11.0488 6.14257 11.1419L8.01188 12.9713L8.71683 13.6612C8.81188 13.7543 8.93069 13.8008 9.06535 13.8008C9.2 13.8008 9.31881 13.7543 9.41386 13.6612L10.1188 12.9713L13.8574 9.31241C13.9525 9.21939 14 9.10311 14 8.97132C14 8.83954 13.9525 8.72326 13.8574 8.63024Z" />
</svg>