<svg width="25" height="25" viewBox="0 0 25 25" xmlns="http://www.w3.org/2000/svg">
    <path
        d="M15.446 12.5L24.3896 3.55632C25.2034 2.74251 25.2034 1.42415 24.3896 0.610352C23.5758 -0.203451 22.2575 -0.203451 21.4437 0.610352L12.5 9.55404L3.55632 0.610352C2.74251 -0.203451 1.42415 -0.203451 0.610352 0.610352C-0.203451 1.42415 -0.203451 2.74251 0.610352 3.55632L9.55404 12.5L0.610352 21.4437C-0.203451 22.2575 -0.203451 23.5758 0.610352 24.3896C1.01725 24.7965 1.55029 25 2.08333 25C2.61637 25 3.14941 24.7965 3.55632 24.3896L12.5 15.446L21.4437 24.3896C21.8506 24.7965 22.3836 25 22.9167 25C23.4497 25 23.9827 24.7965 24.3896 24.3896C25.2034 23.5758 25.2034 22.2575 24.3896 21.4437L15.446 12.5Z" />
</svg>