<svg width="20" height="20" viewBox="0 0 20 20" xmlns="http://www.w3.org/2000/svg">
    <path
        d="M5.00122 1.25C3.62703 1.25 2.50122 2.37092 2.50122 3.74512V16.2488C2.50122 17.623 3.62703 18.7488 5.00122 18.7488H14.9988C16.373 18.7488 17.5 17.623 17.5 16.2488V6.24634C17.5 5.48054 17.1968 4.74804 16.6553 4.20654L14.5422 2.0935C14.0007 1.55201 13.2646 1.25 12.4988 1.25H5.00122ZM6.26587 8.74634H13.7354C13.8174 8.74666 13.8986 8.76314 13.9743 8.79485C14.05 8.82655 14.1188 8.87286 14.1766 8.93112C14.2344 8.98938 14.2802 9.05846 14.3113 9.13441C14.3424 9.21037 14.3582 9.2917 14.3579 9.37378C14.3576 9.53891 14.2919 9.69719 14.1753 9.81407C14.0586 9.93095 13.9005 9.99691 13.7354 9.99756H6.26587C6.10053 9.99724 5.94206 9.93141 5.82515 9.8145C5.70824 9.69759 5.64241 9.53912 5.64209 9.37378C5.64177 9.2916 5.65766 9.21016 5.68885 9.13413C5.72004 9.0581 5.76591 8.98897 5.82385 8.93069C5.88179 8.87241 5.95066 8.82613 6.0265 8.7945C6.10235 8.76286 6.18369 8.7465 6.26587 8.74634ZM6.26587 12.4976H11.2476C11.3297 12.4971 11.4112 12.5128 11.4873 12.5438C11.5634 12.5749 11.6326 12.6206 11.691 12.6785C11.7494 12.7363 11.7958 12.8051 11.8276 12.8808C11.8594 12.9566 11.8759 13.0379 11.8762 13.1201C11.8765 13.2027 11.8605 13.2845 11.829 13.3609C11.7975 13.4372 11.7512 13.5066 11.6927 13.5649C11.6343 13.6233 11.5648 13.6695 11.4884 13.7008C11.412 13.7322 11.3301 13.748 11.2476 13.7476H6.26587C6.18369 13.7474 6.10235 13.731 6.0265 13.6994C5.95066 13.6678 5.88179 13.6215 5.82385 13.5632C5.76591 13.5049 5.72004 13.4358 5.68885 13.3598C5.65766 13.2837 5.64177 13.2023 5.64209 13.1201C5.64273 12.955 5.7087 12.7968 5.82558 12.6802C5.94245 12.5635 6.10074 12.4979 6.26587 12.4976Z" />
</svg>