<svg width="50" height="50" viewBox="0 0 50 50" xmlns="http://www.w3.org/2000/svg">

    <path fill-rule="evenodd" clip-rule="evenodd"
        d="M15.8891 15.7178V22.8835C16.9802 21.5839 18.2861 20.9288 19.8026 20.9288C20.5841 20.9288 21.2834 21.0784 21.9111 21.3733C22.5409 21.6681 23.0106 22.0452 23.3286 22.5023C23.6488 22.9656 23.8636 23.4712 23.9795 24.0293C24.0953 24.5854 24.1543 25.449 24.1543 26.6222V34.2829H20.7652V27.3826C20.7652 26.0135 20.7041 25.1457 20.5757 24.7771C20.4472 24.4064 20.2197 24.1136 19.8953 23.9009C19.5688 23.6797 19.1623 23.5723 18.6715 23.5723C18.1113 23.5723 17.6057 23.7134 17.1676 23.9914C16.7211 24.2716 16.3988 24.6928 16.1945 25.2531C15.9881 25.8155 15.8849 26.6433 15.8891 27.7428L15.8849 34.285H12.5V15.7178H15.8891Z" />
    <path fill-rule="evenodd" clip-rule="evenodd"
        d="M29.2348 15.7178V22.8835C30.3258 21.5839 31.6318 20.9288 33.1483 20.9288C33.9255 20.9288 34.6312 21.0784 35.2588 21.3733C35.8844 21.6681 36.3562 22.0452 36.6722 22.5023C36.9924 22.9656 37.2093 23.4712 37.323 24.0293C37.4389 24.5854 37.4979 25.449 37.4979 26.6222V34.2829H34.113V27.3826C34.113 26.0135 34.0498 25.1457 33.9192 24.7771C33.7907 24.4064 33.5654 24.1136 33.2368 23.9009C32.9145 23.6797 32.5038 23.5723 32.013 23.5723C31.4527 23.5723 30.9493 23.7134 30.5091 23.9914C30.0668 24.2716 29.7445 24.6928 29.5381 25.2531C29.3359 25.8155 29.2326 26.6433 29.2326 27.7428V34.285H25.8478V15.7178H29.2326" />

</svg>