<svg width="31" height="14" viewBox="0 0 31 14" xmlns="http://www.w3.org/2000/svg">
    <g clip-path="url(#clip0_218_3577)">
        <path
            d="M29.25 13.0288H1.75C1.06 13.0288 0.5 12.4688 0.5 11.7788C0.5 11.0888 1.06 10.5288 1.75 10.5288H29.25C29.94 10.5288 30.5 11.0888 30.5 11.7788C30.5 12.4688 29.94 13.0288 29.25 13.0288Z" />
        <path
            d="M29.25 3.44531H1.75C1.06 3.44531 0.5 2.88531 0.5 2.19531C0.5 1.50531 1.06 0.945312 1.75 0.945312H29.25C29.94 0.945312 30.5 1.50531 30.5 2.19531C30.5 2.88531 29.94 3.44531 29.25 3.44531Z" />
    </g>
    <defs>
        <clipPath id="clip0_218_3577">
            <rect width="30" height="12.1094" transform="translate(0.5 0.945312)" />
        </clipPath>
    </defs>
</svg>