<svg width="26" height="26" viewBox="0 0 26 26" xmlns="http://www.w3.org/2000/svg">
    <path
        d="M14.7676 13L20.1338 7.63379C20.6221 7.14551 20.6221 6.35449 20.1338 5.86621C19.6455 5.37793 18.8545 5.37793 18.3662 5.86621L13 11.2324L7.63379 5.86621C7.14551 5.37793 6.35449 5.37793 5.86621 5.86621C5.37793 6.35449 5.37793 7.14551 5.86621 7.63379L11.2324 13L5.86621 18.3662C5.37793 18.8545 5.37793 19.6455 5.86621 20.1338C6.11035 20.3779 6.43018 20.5 6.75 20.5C7.06982 20.5 7.38965 20.3779 7.63379 20.1338L13 14.7676L18.3662 20.1338C18.6104 20.3779 18.9302 20.5 19.25 20.5C19.5698 20.5 19.8896 20.3779 20.1338 20.1338C20.6221 19.6455 20.6221 18.8545 20.1338 18.3662L14.7676 13Z" />
</svg>