<svg xmlns="http://www.w3.org/2000/svg" width="50" height="50" viewBox="0 0 50 50" fill="none">

    <path
        d="M24.7553 49.7551C38.4272 49.7551 49.5105 38.6718 49.5105 24.9999C49.5105 11.3279 38.4272 0.244629 24.7553 0.244629C11.0833 0.244629 0 11.3279 0 24.9999C0 38.6718 11.0833 49.7551 24.7553 49.7551Z"
        fill="#008B8A" />
    <path
        d="M48.295 17.3366C47.5939 15.1814 46.6077 13.1564 45.3774 11.3062L23.7081 33.876L23.7517 36.3877L24.7746 36.3812L48.295 17.3366Z"
        fill="#008B8A" />
    <path
        d="M49.5481 9.98921L45.1338 5.62783C44.5312 5.03226 43.5539 5.03226 42.9514 5.62783L24.0815 25.0647L15.944 17.0241C15.3405 16.4286 14.3641 16.4286 13.761 17.0241L9.84827 20.8904C9.24573 21.4855 9.24573 22.451 9.84827 23.0461L22.9086 35.949C23.2566 36.293 23.7285 36.4317 24.182 36.3782C24.6356 36.4312 25.1074 36.293 25.4555 35.949L49.5482 12.1453C50.1507 11.5498 50.1507 10.5848 49.5481 9.98921Z"
        fill="#F8F8F8" />


</svg>