<svg width="30" height="30" viewBox="0 0 30 30" xmlns="http://www.w3.org/2000/svg">
    <path
        d="M15 5C9.47935 5 5 9.47935 5 15C5 17.2106 5.71553 19.2467 6.92554 20.9046L5.65154 24.6742L9.62478 23.4351C11.178 24.4241 13.0221 25 15 25C20.5207 25 25 20.5207 25 15C25 9.47935 20.5207 5 15 5ZM19.5782 20.3636C17.7632 21.0908 15.5992 20.3869 13.2315 18.5893C10.8639 16.7917 9.30483 14.2612 9.20012 12.3822C9.0954 10.5032 10.6254 9.55497 11.4572 9.56079C12.2891 9.56661 13.2024 12.2251 13.2141 12.6323C13.2257 13.0454 12.196 13.7784 12.1553 14.1274C12.1146 14.4764 13.5573 16.1984 14.1681 16.6638C14.7731 17.1233 16.0239 18.0076 16.6696 17.9261C17.3095 17.8389 17.7341 16.5532 18.1414 16.4718C18.5486 16.3903 20.7708 17.4956 20.9919 17.7807C21.2129 18.0716 21.1896 19.7237 19.5782 20.3636Z" />
</svg>