<svg width="267" height="40" viewBox="0 0 267 40" fill="none" xmlns="http://www.w3.org/2000/svg">
    <g clip-path="url(#clip0_295_1206)">
        <path d="M50.4614 15.1211H37.0286V19.3537H40.2581V25.147H47.2319V19.3537H50.4614V15.1211Z" fill="#A2AABA" />
        <path
            d="M30.8219 9.9137C34.7831 9.9137 39.9857 11.4542 43.6391 13.8534V5.55986C37.8916 2.196 30.6756 0.135254 24.2266 0.135254C7.50363 0.135254 0 9.02474 0 19.9901C0 30.9606 7.44308 39.8501 24.2316 39.8501C30.6756 39.8501 37.8916 37.7893 43.6442 34.4255V26.5613C40.2683 28.7837 35.4341 30.1979 30.827 30.1979C25.2964 30.1979 20.8154 25.6572 20.8154 20.0558C20.8154 14.4544 25.2964 9.9137 30.8219 9.9137ZM11.9796 22.8287C11.4396 22.8287 10.9199 22.7631 10.4153 22.6519V18.5557C10.8745 18.8234 11.4094 18.985 11.9796 18.985C13.6902 18.985 15.0729 17.596 15.0729 15.8889C15.0729 14.1817 13.6852 12.7927 11.9796 12.7927C10.274 12.7927 8.87618 14.1817 8.87618 15.8889C8.87618 15.8889 8.87618 27.8897 8.87618 31.1424C5.87877 31.1424 5.03606 28.2483 5.03606 28.2483V15.8787C5.03606 12.0401 8.14449 8.93383 11.9745 8.93383C15.8096 8.93383 18.913 12.0452 18.913 15.8787C18.9231 19.7174 15.8146 22.8287 11.9796 22.8287Z"
            fill="#A2AABA" />
    </g>
    <path
        d="M73.7614 6.6H75.0814L78.1414 15H76.9174L76.1254 12.696H72.6574L71.8534 15H70.7014L73.7614 6.6ZM75.7654 11.664L74.4214 7.74H74.3974L73.0174 11.664H75.7654ZM79.6456 9.984H77.7256V9H82.6456V9.984H80.7256V15H79.6456V9.984ZM85.0541 9.984H83.1341V9H88.0541V9.984H86.1341V15H85.0541V9.984ZM91.0649 15.096C90.6409 15.096 90.2569 15.032 89.9129 14.904C89.5769 14.768 89.2889 14.576 89.0489 14.328C88.8089 14.072 88.6249 13.764 88.4969 13.404C88.3689 13.044 88.3049 12.632 88.3049 12.168V11.832C88.3049 11.368 88.3689 10.956 88.4969 10.596C88.6249 10.228 88.8049 9.92 89.0369 9.672C89.2769 9.424 89.5609 9.236 89.8889 9.108C90.2249 8.972 90.5969 8.904 91.0049 8.904C91.4129 8.904 91.7809 8.972 92.1089 9.108C92.4449 9.236 92.7289 9.428 92.9609 9.684C93.2009 9.94 93.3849 10.252 93.5129 10.62C93.6409 10.988 93.7049 11.412 93.7049 11.892V12.324H89.4329C89.4489 12.892 89.5929 13.332 89.8649 13.644C90.1449 13.956 90.5249 14.112 91.0049 14.112C91.3889 14.112 91.7049 14.04 91.9529 13.896C92.2009 13.752 92.3889 13.52 92.5169 13.2H93.6449C93.5009 13.824 93.2049 14.296 92.7569 14.616C92.3169 14.936 91.7529 15.096 91.0649 15.096ZM91.0049 9.888C90.5489 9.888 90.1889 10.02 89.9249 10.284C89.6609 10.548 89.5009 10.932 89.4449 11.436H92.5769C92.4809 10.404 91.9569 9.888 91.0049 9.888ZM97.1853 15.096C96.3773 15.096 95.7333 14.844 95.2533 14.34C94.7813 13.836 94.5453 13.092 94.5453 12.108V11.772C94.5453 11.316 94.6093 10.912 94.7373 10.56C94.8653 10.208 95.0413 9.908 95.2653 9.66C95.4973 9.412 95.7733 9.224 96.0933 9.096C96.4213 8.968 96.7853 8.904 97.1853 8.904C97.5613 8.904 97.8933 8.956 98.1813 9.06C98.4773 9.156 98.7293 9.288 98.9373 9.456C99.1453 9.624 99.3133 9.824 99.4413 10.056C99.5693 10.288 99.6573 10.536 99.7053 10.8H98.5773C98.4893 10.544 98.3373 10.328 98.1213 10.152C97.9133 9.976 97.6213 9.888 97.2453 9.888C96.7653 9.888 96.3813 10.044 96.0933 10.356C95.8133 10.66 95.6733 11.132 95.6733 11.772V12.108C95.6733 12.804 95.8133 13.312 96.0933 13.632C96.3813 13.952 96.7653 14.112 97.2453 14.112C97.6213 14.112 97.9133 14.02 98.1213 13.836C98.3373 13.644 98.4893 13.392 98.5773 13.08H99.7053C99.6573 13.376 99.5693 13.648 99.4413 13.896C99.3133 14.136 99.1453 14.348 98.9373 14.532C98.7293 14.708 98.4773 14.848 98.1813 14.952C97.8933 15.048 97.5613 15.096 97.1853 15.096ZM101.924 9.984H100.004V9H104.924V9.984H103.004V15H101.924V9.984ZM107.272 15.096C106.592 15.096 106.08 14.936 105.736 14.616C105.4 14.296 105.232 13.86 105.232 13.308C105.232 12.708 105.432 12.236 105.832 11.892C106.24 11.54 106.9 11.364 107.812 11.364H109.192V11.04C109.192 10.648 109.088 10.36 108.88 10.176C108.68 9.984 108.344 9.888 107.872 9.888C107.44 9.888 107.124 9.964 106.924 10.116C106.724 10.26 106.608 10.448 106.576 10.68H105.472C105.488 10.432 105.548 10.2 105.652 9.984C105.764 9.768 105.92 9.58 106.12 9.42C106.32 9.26 106.564 9.136 106.852 9.048C107.148 8.952 107.488 8.904 107.872 8.904C108.696 8.904 109.3 9.088 109.684 9.456C110.076 9.824 110.272 10.372 110.272 11.1V15H109.432L109.3 14.1H109.276C108.788 14.764 108.12 15.096 107.272 15.096ZM107.392 14.112C107.64 14.112 107.872 14.072 108.088 13.992C108.312 13.904 108.504 13.788 108.664 13.644C108.832 13.492 108.96 13.32 109.048 13.128C109.144 12.928 109.192 12.716 109.192 12.492V12.276H107.872C107.312 12.276 106.92 12.372 106.696 12.564C106.472 12.748 106.36 12.992 106.36 13.296C106.36 13.536 106.444 13.732 106.612 13.884C106.788 14.036 107.048 14.112 107.392 14.112ZM112.741 9.984H110.821V9H115.741V9.984H113.821V15H112.741V9.984ZM119.346 9H124.266V15H123.186V9.984H120.426V15H119.346V9ZM125.821 9H126.661L126.781 9.84H126.805C127.085 9.504 127.377 9.264 127.681 9.12C127.993 8.976 128.365 8.904 128.797 8.904C129.157 8.904 129.485 8.968 129.781 9.096C130.077 9.216 130.333 9.4 130.549 9.648C130.765 9.888 130.929 10.192 131.041 10.56C131.161 10.92 131.221 11.344 131.221 11.832V12.168C131.221 12.648 131.161 13.072 131.041 13.44C130.921 13.8 130.753 14.104 130.537 14.352C130.321 14.6 130.065 14.788 129.769 14.916C129.473 15.036 129.149 15.096 128.797 15.096C128.389 15.096 128.037 15.032 127.741 14.904C127.453 14.776 127.181 14.568 126.925 14.28H126.901V17.4H125.821V9ZM128.497 14.112C128.985 14.112 129.373 13.956 129.661 13.644C129.949 13.324 130.093 12.832 130.093 12.168V11.832C130.093 11.184 129.945 10.7 129.649 10.38C129.361 10.052 128.977 9.888 128.497 9.888C128.009 9.888 127.621 10.048 127.333 10.368C127.045 10.68 126.901 11.168 126.901 11.832V12.168C126.901 12.816 127.045 13.304 127.333 13.632C127.629 13.952 128.017 14.112 128.497 14.112ZM132.425 9H133.505V13.68H133.529L136.145 9H137.585V15H136.505V10.32H136.481L133.865 15H132.425V9ZM141.125 15.096C140.293 15.096 139.681 14.92 139.289 14.568C138.897 14.216 138.669 13.72 138.605 13.08H139.733C139.797 13.416 139.929 13.672 140.129 13.848C140.329 14.024 140.661 14.112 141.125 14.112C141.597 14.112 141.925 14.036 142.109 13.884C142.301 13.732 142.397 13.528 142.397 13.272C142.397 13.016 142.301 12.812 142.109 12.66C141.925 12.508 141.597 12.432 141.125 12.432H140.465V11.448H141.125C141.517 11.448 141.797 11.376 141.965 11.232C142.133 11.088 142.217 10.9 142.217 10.668C142.217 10.436 142.133 10.248 141.965 10.104C141.797 9.96 141.517 9.888 141.125 9.888C140.733 9.888 140.449 9.968 140.273 10.128C140.097 10.28 139.977 10.504 139.913 10.8H138.785C138.849 10.208 139.065 9.744 139.433 9.408C139.809 9.072 140.373 8.904 141.125 8.904C141.877 8.904 142.433 9.064 142.793 9.384C143.161 9.704 143.345 10.116 143.345 10.62C143.345 11.22 143.089 11.644 142.577 11.892V11.916C143.209 12.172 143.525 12.64 143.525 13.32C143.525 13.84 143.329 14.268 142.937 14.604C142.553 14.932 141.949 15.096 141.125 15.096ZM144.73 9H145.81V11.448H148.81V9H149.89V15H148.81V12.432H145.81V15H144.73V9ZM153.071 15.096C152.391 15.096 151.879 14.936 151.535 14.616C151.199 14.296 151.031 13.86 151.031 13.308C151.031 12.708 151.231 12.236 151.631 11.892C152.039 11.54 152.699 11.364 153.611 11.364H154.991V11.04C154.991 10.648 154.887 10.36 154.679 10.176C154.479 9.984 154.143 9.888 153.671 9.888C153.239 9.888 152.923 9.964 152.723 10.116C152.523 10.26 152.407 10.448 152.375 10.68H151.271C151.287 10.432 151.347 10.2 151.451 9.984C151.563 9.768 151.719 9.58 151.919 9.42C152.119 9.26 152.363 9.136 152.651 9.048C152.947 8.952 153.287 8.904 153.671 8.904C154.495 8.904 155.099 9.088 155.483 9.456C155.875 9.824 156.071 10.372 156.071 11.1V15H155.231L155.099 14.1H155.075C154.587 14.764 153.919 15.096 153.071 15.096ZM153.191 14.112C153.439 14.112 153.671 14.072 153.887 13.992C154.111 13.904 154.303 13.788 154.463 13.644C154.631 13.492 154.759 13.32 154.847 13.128C154.943 12.928 154.991 12.716 154.991 12.492V12.276H153.671C153.111 12.276 152.719 12.372 152.495 12.564C152.271 12.748 152.159 12.992 152.159 13.296C152.159 13.536 152.243 13.732 152.411 13.884C152.587 14.036 152.847 14.112 153.191 14.112ZM157.574 9H158.654V11.448H161.654V9H162.734V15H161.654V12.432H158.654V15H157.574V9ZM164.295 9H165.375V13.68H165.399L168.015 9H169.455V15H168.375V10.32H168.351L165.735 15H164.295V9ZM171.82 12.696C171.436 12.544 171.156 12.324 170.98 12.036C170.804 11.748 170.716 11.392 170.716 10.968C170.716 10.344 170.912 9.86 171.304 9.516C171.696 9.172 172.34 9 173.236 9H175.276V15H174.196V12.912H173.236C173.172 12.912 173.108 12.912 173.044 12.912C172.98 12.912 172.916 12.908 172.852 12.9L171.676 15H170.476L171.82 12.696ZM171.844 10.968C171.844 11.28 171.948 11.52 172.156 11.688C172.364 11.848 172.744 11.928 173.296 11.928H174.196V9.984H173.296C172.736 9.984 172.352 10.068 172.144 10.236C171.944 10.396 171.844 10.64 171.844 10.968ZM179.594 9H180.674V11.388H181.514L183.146 9H184.394L182.366 11.844L184.634 15H183.338L181.514 12.372H180.674V15H179.594V9ZM187.696 15.096C186.84 15.096 186.164 14.844 185.668 14.34C185.18 13.836 184.936 13.112 184.936 12.168V11.832C184.936 10.896 185.184 10.176 185.68 9.672C186.176 9.16 186.848 8.904 187.696 8.904C188.552 8.904 189.224 9.156 189.712 9.66C190.208 10.164 190.456 10.888 190.456 11.832V12.168C190.456 13.104 190.208 13.828 189.712 14.34C189.216 14.844 188.544 15.096 187.696 15.096ZM187.696 14.112C188.2 14.112 188.596 13.956 188.884 13.644C189.18 13.324 189.328 12.832 189.328 12.168V11.832C189.328 11.176 189.18 10.688 188.884 10.368C188.596 10.048 188.2 9.888 187.696 9.888C187.192 9.888 186.792 10.048 186.496 10.368C186.208 10.68 186.064 11.168 186.064 11.832V12.168C186.064 12.824 186.208 13.312 186.496 13.632C186.792 13.952 187.192 14.112 187.696 14.112ZM191.653 9H193.261L194.857 12.42H194.881L196.477 9H198.013V15H196.933V10.32H196.909L195.373 13.62H194.293L192.757 10.32H192.733V15H191.653V9ZM199.57 9H204.49V15H203.41V9.984H200.65V15H199.57V9ZM208.445 15.096C208.021 15.096 207.637 15.032 207.293 14.904C206.957 14.768 206.669 14.576 206.429 14.328C206.189 14.072 206.005 13.764 205.877 13.404C205.749 13.044 205.685 12.632 205.685 12.168V11.832C205.685 11.368 205.749 10.956 205.877 10.596C206.005 10.228 206.185 9.92 206.417 9.672C206.657 9.424 206.941 9.236 207.269 9.108C207.605 8.972 207.977 8.904 208.385 8.904C208.793 8.904 209.161 8.972 209.489 9.108C209.825 9.236 210.109 9.428 210.341 9.684C210.581 9.94 210.765 10.252 210.893 10.62C211.021 10.988 211.085 11.412 211.085 11.892V12.324H206.813C206.829 12.892 206.973 13.332 207.245 13.644C207.525 13.956 207.905 14.112 208.385 14.112C208.769 14.112 209.085 14.04 209.333 13.896C209.581 13.752 209.769 13.52 209.897 13.2H211.025C210.881 13.824 210.585 14.296 210.137 14.616C209.697 14.936 209.133 15.096 208.445 15.096ZM208.385 9.888C207.929 9.888 207.569 10.02 207.305 10.284C207.041 10.548 206.881 10.932 206.825 11.436H209.957C209.861 10.404 209.337 9.888 208.385 9.888ZM213.251 9.984H211.331V9H216.251V9.984H214.331V15H213.251V9.984ZM219.261 15.096C218.837 15.096 218.453 15.032 218.109 14.904C217.773 14.768 217.485 14.576 217.245 14.328C217.005 14.072 216.821 13.764 216.693 13.404C216.565 13.044 216.501 12.632 216.501 12.168V11.832C216.501 11.368 216.565 10.956 216.693 10.596C216.821 10.228 217.001 9.92 217.233 9.672C217.473 9.424 217.757 9.236 218.085 9.108C218.421 8.972 218.793 8.904 219.201 8.904C219.609 8.904 219.977 8.972 220.305 9.108C220.641 9.236 220.925 9.428 221.157 9.684C221.397 9.94 221.581 10.252 221.709 10.62C221.837 10.988 221.901 11.412 221.901 11.892V12.324H217.629C217.645 12.892 217.789 13.332 218.061 13.644C218.341 13.956 218.721 14.112 219.201 14.112C219.585 14.112 219.901 14.04 220.149 13.896C220.397 13.752 220.585 13.52 220.713 13.2H221.841C221.697 13.824 221.401 14.296 220.953 14.616C220.513 14.936 219.949 15.096 219.261 15.096ZM219.201 9.888C218.745 9.888 218.385 10.02 218.121 10.284C217.857 10.548 217.697 10.932 217.641 11.436H220.773C220.677 10.404 220.153 9.888 219.201 9.888ZM223.102 9H224.182V11.448H227.182V9H228.262V15H227.182V12.432H224.182V15H223.102V9ZM231.023 9.984H229.103V9H234.023V9.984H232.103V15H231.023V9.984ZM234.868 9H235.948V11.448H238.948V9H240.028V15H238.948V12.432H235.948V15H234.868V9ZM243.989 15.096C243.133 15.096 242.457 14.844 241.961 14.34C241.473 13.836 241.229 13.112 241.229 12.168V11.832C241.229 10.896 241.477 10.176 241.973 9.672C242.469 9.16 243.141 8.904 243.989 8.904C244.845 8.904 245.517 9.156 246.005 9.66C246.501 10.164 246.749 10.888 246.749 11.832V12.168C246.749 13.104 246.501 13.828 246.005 14.34C245.509 14.844 244.837 15.096 243.989 15.096ZM243.989 14.112C244.493 14.112 244.889 13.956 245.177 13.644C245.473 13.324 245.621 12.832 245.621 12.168V11.832C245.621 11.176 245.473 10.688 245.177 10.368C244.889 10.048 244.493 9.888 243.989 9.888C243.485 9.888 243.085 10.048 242.789 10.368C242.501 10.68 242.357 11.168 242.357 11.832V12.168C242.357 12.824 242.501 13.312 242.789 13.632C243.085 13.952 243.485 14.112 243.989 14.112ZM250.227 15.096C249.419 15.096 248.775 14.844 248.295 14.34C247.823 13.836 247.587 13.092 247.587 12.108V11.772C247.587 11.316 247.651 10.912 247.779 10.56C247.907 10.208 248.083 9.908 248.307 9.66C248.539 9.412 248.815 9.224 249.135 9.096C249.463 8.968 249.827 8.904 250.227 8.904C250.603 8.904 250.935 8.956 251.223 9.06C251.519 9.156 251.771 9.288 251.979 9.456C252.187 9.624 252.355 9.824 252.483 10.056C252.611 10.288 252.699 10.536 252.747 10.8H251.619C251.531 10.544 251.379 10.328 251.163 10.152C250.955 9.976 250.663 9.888 250.287 9.888C249.807 9.888 249.423 10.044 249.135 10.356C248.855 10.66 248.715 11.132 248.715 11.772V12.108C248.715 12.804 248.855 13.312 249.135 13.632C249.423 13.952 249.807 14.112 250.287 14.112C250.663 14.112 250.955 14.02 251.163 13.836C251.379 13.644 251.531 13.392 251.619 13.08H252.747C252.699 13.376 252.611 13.648 252.483 13.896C252.355 14.136 252.187 14.348 251.979 14.532C251.771 14.708 251.519 14.848 251.223 14.952C250.935 15.048 250.603 15.096 250.227 15.096ZM254.965 9.984H253.045V9H257.965V9.984H256.045V15H254.965V9.984ZM258.81 9H259.89V13.68H259.914L262.53 9H263.97V15H262.89V10.32H262.866L260.25 15H258.81V9ZM71.4214 24.6H76.4014V25.632H72.5494V33H71.4214V24.6ZM80.2939 33.096C79.7499 33.096 79.2579 33.008 78.8179 32.832C78.3779 32.656 77.9979 32.396 77.6779 32.052C77.3659 31.708 77.1219 31.284 76.9459 30.78C76.7779 30.268 76.6939 29.684 76.6939 29.028V28.452C76.6939 27.828 76.7779 27.272 76.9459 26.784C77.1219 26.296 77.3659 25.884 77.6779 25.548C77.9979 25.204 78.3779 24.944 78.8179 24.768C79.2659 24.592 79.7579 24.504 80.2939 24.504C80.8299 24.504 81.3179 24.592 81.7579 24.768C82.2059 24.944 82.5859 25.2 82.8979 25.536C83.2179 25.872 83.4619 26.288 83.6299 26.784C83.8059 27.272 83.8939 27.828 83.8939 28.452V29.028C83.8939 29.684 83.8059 30.264 83.6299 30.768C83.4619 31.272 83.2179 31.696 82.8979 32.04C82.5859 32.384 82.2059 32.648 81.7579 32.832C81.3179 33.008 80.8299 33.096 80.2939 33.096ZM80.2939 32.064C81.0139 32.064 81.5979 31.816 82.0459 31.32C82.4939 30.816 82.7179 30.052 82.7179 29.028V28.452C82.7179 27.972 82.6579 27.552 82.5379 27.192C82.4179 26.824 82.2499 26.52 82.0339 26.28C81.8259 26.032 81.5739 25.848 81.2779 25.728C80.9819 25.6 80.6539 25.536 80.2939 25.536C79.9339 25.536 79.6059 25.596 79.3099 25.716C79.0139 25.836 78.7579 26.02 78.5419 26.268C78.3259 26.508 78.1579 26.812 78.0379 27.18C77.9259 27.54 77.8699 27.964 77.8699 28.452V29.028C77.8699 29.54 77.9299 29.988 78.0499 30.372C78.1699 30.748 78.3379 31.064 78.5539 31.32C78.7699 31.568 79.0259 31.756 79.3219 31.884C79.6179 32.004 79.9419 32.064 80.2939 32.064ZM88.5135 33.096C87.9855 33.096 87.5055 33.008 87.0735 32.832C86.6415 32.656 86.2695 32.396 85.9575 32.052C85.6455 31.708 85.4015 31.284 85.2255 30.78C85.0575 30.268 84.9735 29.684 84.9735 29.028V28.452C84.9735 27.828 85.0575 27.272 85.2255 26.784C85.4015 26.296 85.6455 25.884 85.9575 25.548C86.2695 25.204 86.6415 24.944 87.0735 24.768C87.5135 24.592 87.9935 24.504 88.5135 24.504C88.9935 24.504 89.4215 24.572 89.7975 24.708C90.1815 24.844 90.5095 25.032 90.7815 25.272C91.0615 25.504 91.2855 25.78 91.4535 26.1C91.6295 26.412 91.7495 26.752 91.8135 27.12H90.6135C90.5495 26.896 90.4575 26.688 90.3375 26.496C90.2255 26.304 90.0815 26.136 89.9055 25.992C89.7375 25.848 89.5335 25.736 89.2935 25.656C89.0615 25.576 88.8015 25.536 88.5135 25.536C88.1775 25.536 87.8615 25.6 87.5655 25.728C87.2775 25.848 87.0295 26.032 86.8215 26.28C86.6135 26.528 86.4495 26.832 86.3295 27.192C86.2095 27.552 86.1495 27.972 86.1495 28.452V29.028C86.1495 29.532 86.2095 29.976 86.3295 30.36C86.4495 30.736 86.6135 31.052 86.8215 31.308C87.0375 31.556 87.2895 31.744 87.5775 31.872C87.8655 32 88.1775 32.064 88.5135 32.064C89.0975 32.064 89.5615 31.908 89.9055 31.596C90.2575 31.276 90.4935 30.864 90.6135 30.36H91.8135C91.7495 30.76 91.6295 31.128 91.4535 31.464C91.2855 31.792 91.0615 32.08 90.7815 32.328C90.5095 32.568 90.1815 32.756 89.7975 32.892C89.4215 33.028 88.9935 33.096 88.5135 33.096ZM94.6652 25.632H91.9892V24.6H98.4692V25.632H95.7932V33H94.6652V25.632ZM98.8288 33.096C98.5888 33.096 98.3928 33.02 98.2408 32.868C98.0968 32.716 98.0248 32.524 98.0248 32.292C98.0248 32.06 98.0968 31.868 98.2408 31.716C98.3928 31.564 98.5888 31.488 98.8288 31.488C99.0688 31.488 99.2608 31.564 99.4048 31.716C99.5568 31.868 99.6328 32.06 99.6328 32.292C99.6328 32.524 99.5568 32.716 99.4048 32.868C99.2608 33.02 99.0688 33.096 98.8288 33.096ZM101.346 24.6H104.166C105.206 24.6 105.974 24.832 106.47 25.296C106.974 25.752 107.226 26.372 107.226 27.156C107.226 27.716 107.094 28.196 106.83 28.596C106.574 28.996 106.178 29.292 105.642 29.484L107.466 33H106.194L104.538 29.7C104.474 29.708 104.41 29.712 104.346 29.712C104.29 29.712 104.23 29.712 104.166 29.712H102.474V33H101.346V24.6ZM104.106 28.68C104.802 28.68 105.298 28.548 105.594 28.284C105.898 28.02 106.05 27.644 106.05 27.156C106.05 26.676 105.898 26.304 105.594 26.04C105.29 25.768 104.794 25.632 104.106 25.632H102.474V28.68H104.106ZM111.669 33.096C111.173 33.096 110.725 33.02 110.325 32.868C109.925 32.716 109.585 32.496 109.305 32.208C109.025 31.912 108.809 31.556 108.657 31.14C108.505 30.716 108.429 30.236 108.429 29.7V24.6H109.557V29.64C109.557 30.44 109.749 31.044 110.133 31.452C110.517 31.86 111.029 32.064 111.669 32.064C112.317 32.064 112.829 31.864 113.205 31.464C113.589 31.056 113.781 30.448 113.781 29.64V24.6H114.909V29.7C114.909 30.228 114.833 30.704 114.681 31.128C114.529 31.544 114.309 31.9 114.021 32.196C113.741 32.484 113.401 32.708 113.001 32.868C112.601 33.02 112.157 33.096 111.669 33.096ZM117.011 33.096C116.771 33.096 116.575 33.02 116.423 32.868C116.279 32.716 116.207 32.524 116.207 32.292C116.207 32.06 116.279 31.868 116.423 31.716C116.575 31.564 116.771 31.488 117.011 31.488C117.251 31.488 117.443 31.564 117.587 31.716C117.739 31.868 117.815 32.06 117.815 32.292C117.815 32.524 117.739 32.716 117.587 32.868C117.443 33.02 117.251 33.096 117.011 33.096ZM119.049 31.968L121.917 29.196C122.429 28.692 122.801 28.28 123.033 27.96C123.273 27.632 123.393 27.316 123.393 27.012C123.393 26.588 123.249 26.244 122.961 25.98C122.673 25.716 122.289 25.584 121.809 25.584C121.329 25.584 120.945 25.72 120.657 25.992C120.369 26.256 120.225 26.612 120.225 27.06H119.049C119.049 26.684 119.113 26.34 119.241 26.028C119.377 25.716 119.565 25.448 119.805 25.224C120.045 24.992 120.333 24.816 120.669 24.696C121.013 24.568 121.393 24.504 121.809 24.504C122.225 24.504 122.601 24.568 122.937 24.696C123.281 24.816 123.573 24.988 123.813 25.212C124.053 25.436 124.237 25.704 124.365 26.016C124.501 26.32 124.569 26.652 124.569 27.012C124.569 27.46 124.413 27.912 124.101 28.368C123.789 28.824 123.337 29.328 122.745 29.88L120.537 31.968H124.569V33H119.049V31.968ZM125.406 31.968L128.274 29.196C128.786 28.692 129.158 28.28 129.39 27.96C129.63 27.632 129.75 27.316 129.75 27.012C129.75 26.588 129.606 26.244 129.318 25.98C129.03 25.716 128.646 25.584 128.166 25.584C127.686 25.584 127.302 25.72 127.014 25.992C126.726 26.256 126.582 26.612 126.582 27.06H125.406C125.406 26.684 125.47 26.34 125.598 26.028C125.734 25.716 125.922 25.448 126.162 25.224C126.402 24.992 126.69 24.816 127.026 24.696C127.37 24.568 127.75 24.504 128.166 24.504C128.582 24.504 128.958 24.568 129.294 24.696C129.638 24.816 129.93 24.988 130.17 25.212C130.41 25.436 130.594 25.704 130.722 26.016C130.858 26.32 130.926 26.652 130.926 27.012C130.926 27.46 130.77 27.912 130.458 28.368C130.146 28.824 129.694 29.328 129.102 29.88L126.894 31.968H130.926V33H125.406V31.968ZM133.276 25.848L131.524 27.036V25.812L133.276 24.6H134.404V33H133.276V25.848ZM135.719 31.968L138.587 29.196C139.099 28.692 139.471 28.28 139.703 27.96C139.943 27.632 140.063 27.316 140.063 27.012C140.063 26.588 139.919 26.244 139.631 25.98C139.343 25.716 138.959 25.584 138.479 25.584C137.999 25.584 137.615 25.72 137.327 25.992C137.039 26.256 136.895 26.612 136.895 27.06H135.719C135.719 26.684 135.783 26.34 135.911 26.028C136.047 25.716 136.235 25.448 136.475 25.224C136.715 24.992 137.003 24.816 137.339 24.696C137.683 24.568 138.063 24.504 138.479 24.504C138.895 24.504 139.271 24.568 139.607 24.696C139.951 24.816 140.243 24.988 140.483 25.212C140.723 25.436 140.907 25.704 141.035 26.016C141.171 26.32 141.239 26.652 141.239 27.012C141.239 27.46 141.083 27.912 140.771 28.368C140.459 28.824 140.007 29.328 139.415 29.88L137.207 31.968H141.239V33H135.719V31.968ZM145.137 33.096C144.665 33.096 144.249 33.036 143.889 32.916C143.537 32.796 143.237 32.632 142.989 32.424C142.749 32.208 142.565 31.952 142.437 31.656C142.317 31.36 142.257 31.036 142.257 30.684C142.257 30.196 142.381 29.78 142.629 29.436C142.885 29.092 143.221 28.82 143.637 28.62C143.285 28.436 143.005 28.192 142.797 27.888C142.597 27.584 142.497 27.212 142.497 26.772C142.497 26.452 142.561 26.156 142.689 25.884C142.817 25.604 142.993 25.364 143.217 25.164C143.449 24.956 143.725 24.796 144.045 24.684C144.373 24.564 144.737 24.504 145.137 24.504C145.545 24.504 145.909 24.56 146.229 24.672C146.557 24.784 146.833 24.94 147.057 25.14C147.289 25.34 147.465 25.58 147.585 25.86C147.713 26.14 147.777 26.444 147.777 26.772C147.777 27.204 147.669 27.572 147.453 27.876C147.245 28.18 146.965 28.424 146.613 28.608C147.037 28.808 147.377 29.084 147.633 29.436C147.889 29.78 148.017 30.196 148.017 30.684C148.017 31.028 147.953 31.348 147.825 31.644C147.697 31.932 147.509 32.184 147.261 32.4C147.021 32.616 146.721 32.788 146.361 32.916C146.001 33.036 145.593 33.096 145.137 33.096ZM145.137 28.164C145.313 28.14 145.489 28.1 145.665 28.044C145.841 27.98 145.997 27.896 146.133 27.792C146.277 27.68 146.389 27.544 146.469 27.384C146.557 27.216 146.601 27.016 146.601 26.784C146.601 26.632 146.569 26.484 146.505 26.34C146.441 26.196 146.345 26.068 146.217 25.956C146.097 25.844 145.945 25.756 145.761 25.692C145.577 25.62 145.369 25.584 145.137 25.584C144.905 25.584 144.697 25.62 144.513 25.692C144.329 25.756 144.173 25.844 144.045 25.956C143.925 26.068 143.833 26.196 143.769 26.34C143.705 26.484 143.673 26.632 143.673 26.784C143.673 27.008 143.717 27.2 143.805 27.36C143.901 27.52 144.017 27.656 144.153 27.768C144.297 27.88 144.453 27.968 144.621 28.032C144.797 28.096 144.969 28.14 145.137 28.164ZM145.137 32.016C145.409 32.016 145.649 31.98 145.857 31.908C146.073 31.836 146.253 31.74 146.397 31.62C146.541 31.492 146.649 31.348 146.721 31.188C146.801 31.02 146.841 30.848 146.841 30.672C146.841 30.432 146.793 30.22 146.697 30.036C146.601 29.852 146.473 29.696 146.313 29.568C146.161 29.432 145.981 29.324 145.773 29.244C145.573 29.164 145.361 29.112 145.137 29.088C144.905 29.112 144.685 29.164 144.477 29.244C144.269 29.316 144.085 29.42 143.925 29.556C143.773 29.684 143.653 29.84 143.565 30.024C143.477 30.208 143.433 30.424 143.433 30.672C143.433 30.856 143.469 31.028 143.541 31.188C143.621 31.348 143.733 31.492 143.877 31.62C144.021 31.74 144.197 31.836 144.405 31.908C144.621 31.98 144.865 32.016 145.137 32.016Z"
        fill="#A2AABA" />
    <defs>
        <clipPath id="clip0_295_1206">
            <rect width="50.4615" height="40" fill="white" />
        </clipPath>
    </defs>
</svg>