<svg width="267" height="40" viewBox="0 0 267 40" fill="none" xmlns="http://www.w3.org/2000/svg">
    <g clip-path="url(#clip0_218_3464)">
        <path d="M50.4615 15.1211H37.0287V19.3537H40.2582V25.147H47.232V19.3537H50.4615V15.1211Z" fill="#A2AABA" />
        <path
            d="M30.8219 9.9137C34.7831 9.9137 39.9857 11.4542 43.6391 13.8534V5.55986C37.8916 2.196 30.6756 0.135254 24.2266 0.135254C7.50363 0.135254 0 9.02474 0 19.9901C0 30.9606 7.44308 39.8501 24.2316 39.8501C30.6756 39.8501 37.8916 37.7893 43.6442 34.4255V26.5613C40.2683 28.7837 35.4341 30.1979 30.827 30.1979C25.2964 30.1979 20.8154 25.6572 20.8154 20.0558C20.8154 14.4544 25.2964 9.9137 30.8219 9.9137ZM11.9796 22.8287C11.4396 22.8287 10.9199 22.7631 10.4153 22.6519V18.5557C10.8745 18.8234 11.4094 18.985 11.9796 18.985C13.6902 18.985 15.0729 17.596 15.0729 15.8889C15.0729 14.1817 13.6852 12.7927 11.9796 12.7927C10.274 12.7927 8.87618 14.1817 8.87618 15.8889C8.87618 15.8889 8.87618 27.8897 8.87618 31.1424C5.87877 31.1424 5.03606 28.2483 5.03606 28.2483V15.8787C5.03606 12.0401 8.14449 8.93383 11.9745 8.93383C15.8096 8.93383 18.913 12.0452 18.913 15.8787C18.9231 19.7174 15.8146 22.8287 11.9796 22.8287Z"
            fill="#A2AABA" />
    </g>
    <path
        d="M74.3115 6.2H75.8515L79.4215 16H77.9935L77.0695 13.312H73.0235L72.0855 16H70.7415L74.3115 6.2ZM76.6495 12.108L75.0815 7.53H75.0535L73.4435 12.108H76.6495ZM81.1765 10.148H78.9365V9H84.6765V10.148H82.4365V16H81.1765V10.148ZM87.4863 10.148H85.2463V9H90.9863V10.148H88.7463V16H87.4863V10.148ZM94.4989 16.112C94.0042 16.112 93.5562 16.0373 93.1549 15.888C92.7629 15.7293 92.4269 15.5053 92.1469 15.216C91.8669 14.9173 91.6522 14.558 91.5029 14.138C91.3536 13.718 91.2789 13.2373 91.2789 12.696V12.304C91.2789 11.7627 91.3536 11.282 91.5029 10.862C91.6522 10.4327 91.8622 10.0733 92.1329 9.784C92.4129 9.49467 92.7442 9.27533 93.1269 9.126C93.5189 8.96733 93.9529 8.888 94.4289 8.888C94.9049 8.888 95.3342 8.96733 95.7169 9.126C96.1089 9.27533 96.4402 9.49933 96.7109 9.798C96.9909 10.0967 97.2056 10.4607 97.3549 10.89C97.5042 11.3193 97.5789 11.814 97.5789 12.374V12.878H92.5949C92.6136 13.5407 92.7816 14.054 93.0989 14.418C93.4256 14.782 93.8689 14.964 94.4289 14.964C94.8769 14.964 95.2456 14.88 95.5349 14.712C95.8242 14.544 96.0436 14.2733 96.1929 13.9H97.5089C97.3409 14.628 96.9956 15.1787 96.4729 15.552C95.9596 15.9253 95.3016 16.112 94.4989 16.112ZM94.4289 10.036C93.8969 10.036 93.4769 10.19 93.1689 10.498C92.8609 10.806 92.6742 11.254 92.6089 11.842H96.2629C96.1509 10.638 95.5396 10.036 94.4289 10.036ZM101.639 16.112C100.697 16.112 99.9454 15.818 99.3854 15.23C98.8348 14.642 98.5594 13.774 98.5594 12.626V12.234C98.5594 11.702 98.6341 11.2307 98.7834 10.82C98.9328 10.4093 99.1381 10.0593 99.3994 9.77C99.6701 9.48067 99.9921 9.26133 100.365 9.112C100.748 8.96267 101.173 8.888 101.639 8.888C102.078 8.888 102.465 8.94867 102.801 9.07C103.147 9.182 103.441 9.336 103.683 9.532C103.926 9.728 104.122 9.96133 104.271 10.232C104.421 10.5027 104.523 10.792 104.579 11.1H103.263C103.161 10.8013 102.983 10.5493 102.731 10.344C102.489 10.1387 102.148 10.036 101.709 10.036C101.149 10.036 100.701 10.218 100.365 10.582C100.039 10.9367 99.8754 11.4873 99.8754 12.234V12.626C99.8754 13.438 100.039 14.0307 100.365 14.404C100.701 14.7773 101.149 14.964 101.709 14.964C102.148 14.964 102.489 14.8567 102.731 14.642C102.983 14.418 103.161 14.124 103.263 13.76H104.579C104.523 14.1053 104.421 14.4227 104.271 14.712C104.122 14.992 103.926 15.2393 103.683 15.454C103.441 15.6593 103.147 15.8227 102.801 15.944C102.465 16.056 102.078 16.112 101.639 16.112ZM107.168 10.148H104.928V9H110.668V10.148H108.428V16H107.168V10.148ZM113.407 16.112C112.614 16.112 112.016 15.9253 111.615 15.552C111.223 15.1787 111.027 14.67 111.027 14.026C111.027 13.326 111.26 12.7753 111.727 12.374C112.203 11.9633 112.973 11.758 114.037 11.758H115.647V11.38C115.647 10.9227 115.526 10.5867 115.283 10.372C115.05 10.148 114.658 10.036 114.107 10.036C113.603 10.036 113.234 10.1247 113.001 10.302C112.768 10.47 112.632 10.6893 112.595 10.96H111.307C111.326 10.6707 111.396 10.4 111.517 10.148C111.648 9.896 111.83 9.67667 112.063 9.49C112.296 9.30333 112.581 9.15867 112.917 9.056C113.262 8.944 113.659 8.888 114.107 8.888C115.068 8.888 115.773 9.10267 116.221 9.532C116.678 9.96133 116.907 10.6007 116.907 11.45V16H115.927L115.773 14.95H115.745C115.176 15.7247 114.396 16.112 113.407 16.112ZM113.547 14.964C113.836 14.964 114.107 14.9173 114.359 14.824C114.62 14.7213 114.844 14.586 115.031 14.418C115.227 14.2407 115.376 14.04 115.479 13.816C115.591 13.5827 115.647 13.3353 115.647 13.074V12.822H114.107C113.454 12.822 112.996 12.934 112.735 13.158C112.474 13.3727 112.343 13.6573 112.343 14.012C112.343 14.292 112.441 14.5207 112.637 14.698C112.842 14.8753 113.146 14.964 113.547 14.964ZM119.787 10.148H117.547V9H123.287V10.148H121.047V16H119.787V10.148ZM127.494 9H133.234V16H131.974V10.148H128.754V16H127.494V9ZM135.047 9H136.027L136.167 9.98H136.195C136.522 9.588 136.863 9.308 137.217 9.14C137.581 8.972 138.015 8.888 138.519 8.888C138.939 8.888 139.322 8.96267 139.667 9.112C140.013 9.252 140.311 9.46667 140.563 9.756C140.815 10.036 141.007 10.3907 141.137 10.82C141.277 11.24 141.347 11.7347 141.347 12.304V12.696C141.347 13.256 141.277 13.7507 141.137 14.18C140.997 14.6 140.801 14.9547 140.549 15.244C140.297 15.5333 139.999 15.7527 139.653 15.902C139.308 16.042 138.93 16.112 138.519 16.112C138.043 16.112 137.633 16.0373 137.287 15.888C136.951 15.7387 136.634 15.496 136.335 15.16H136.307V18.8H135.047V9ZM138.169 14.964C138.739 14.964 139.191 14.782 139.527 14.418C139.863 14.0447 140.031 13.4707 140.031 12.696V12.304C140.031 11.548 139.859 10.9833 139.513 10.61C139.177 10.2273 138.729 10.036 138.169 10.036C137.6 10.036 137.147 10.2227 136.811 10.596C136.475 10.96 136.307 11.5293 136.307 12.304V12.696C136.307 13.452 136.475 14.0213 136.811 14.404C137.157 14.7773 137.609 14.964 138.169 14.964ZM142.752 9H144.012V14.46H144.04L147.092 9H148.772V16H147.512V10.54H147.484L144.432 16H142.752V9ZM152.903 16.112C151.932 16.112 151.218 15.9067 150.761 15.496C150.304 15.0853 150.038 14.5067 149.963 13.76H151.279C151.354 14.152 151.508 14.4507 151.741 14.656C151.974 14.8613 152.362 14.964 152.903 14.964C153.454 14.964 153.836 14.8753 154.051 14.698C154.275 14.5207 154.387 14.2827 154.387 13.984C154.387 13.6853 154.275 13.4473 154.051 13.27C153.836 13.0927 153.454 13.004 152.903 13.004H152.133V11.856H152.903C153.36 11.856 153.687 11.772 153.883 11.604C154.079 11.436 154.177 11.2167 154.177 10.946C154.177 10.6753 154.079 10.456 153.883 10.288C153.687 10.12 153.36 10.036 152.903 10.036C152.446 10.036 152.114 10.1293 151.909 10.316C151.704 10.4933 151.564 10.7547 151.489 11.1H150.173C150.248 10.4093 150.5 9.868 150.929 9.476C151.368 9.084 152.026 8.888 152.903 8.888C153.78 8.888 154.429 9.07467 154.849 9.448C155.278 9.82133 155.493 10.302 155.493 10.89C155.493 11.59 155.194 12.0847 154.597 12.374V12.402C155.334 12.7007 155.703 13.2467 155.703 14.04C155.703 14.6467 155.474 15.146 155.017 15.538C154.569 15.9207 153.864 16.112 152.903 16.112ZM157.108 9H158.368V11.856H161.868V9H163.128V16H161.868V13.004H158.368V16H157.108V9ZM166.839 16.112C166.046 16.112 165.448 15.9253 165.047 15.552C164.655 15.1787 164.459 14.67 164.459 14.026C164.459 13.326 164.692 12.7753 165.159 12.374C165.635 11.9633 166.405 11.758 167.469 11.758H169.079V11.38C169.079 10.9227 168.958 10.5867 168.715 10.372C168.482 10.148 168.09 10.036 167.539 10.036C167.035 10.036 166.666 10.1247 166.433 10.302C166.2 10.47 166.064 10.6893 166.027 10.96H164.739C164.758 10.6707 164.828 10.4 164.949 10.148C165.08 9.896 165.262 9.67667 165.495 9.49C165.728 9.30333 166.013 9.15867 166.349 9.056C166.694 8.944 167.091 8.888 167.539 8.888C168.5 8.888 169.205 9.10267 169.653 9.532C170.11 9.96133 170.339 10.6007 170.339 11.45V16H169.359L169.205 14.95H169.177C168.608 15.7247 167.828 16.112 166.839 16.112ZM166.979 14.964C167.268 14.964 167.539 14.9173 167.791 14.824C168.052 14.7213 168.276 14.586 168.463 14.418C168.659 14.2407 168.808 14.04 168.911 13.816C169.023 13.5827 169.079 13.3353 169.079 13.074V12.822H167.539C166.886 12.822 166.428 12.934 166.167 13.158C165.906 13.3727 165.775 13.6573 165.775 14.012C165.775 14.292 165.873 14.5207 166.069 14.698C166.274 14.8753 166.578 14.964 166.979 14.964ZM172.093 9H173.353V11.856H176.853V9H178.113V16H176.853V13.004H173.353V16H172.093V9ZM179.934 9H181.194V14.46H181.222L184.274 9H185.954V16H184.694V10.54H184.666L181.614 16H179.934V9ZM188.713 13.312C188.265 13.1347 187.938 12.878 187.733 12.542C187.528 12.206 187.425 11.7907 187.425 11.296C187.425 10.568 187.654 10.0033 188.111 9.602C188.568 9.20067 189.32 9 190.365 9H192.745V16H191.485V13.564H190.365C190.29 13.564 190.216 13.564 190.141 13.564C190.066 13.564 189.992 13.5593 189.917 13.55L188.545 16H187.145L188.713 13.312ZM188.741 11.296C188.741 11.66 188.862 11.94 189.105 12.136C189.348 12.3227 189.791 12.416 190.435 12.416H191.485V10.148H190.435C189.782 10.148 189.334 10.246 189.091 10.442C188.858 10.6287 188.741 10.9133 188.741 11.296ZM71.5115 27H72.7715V29.786H73.7515L75.6555 27H77.1115L74.7455 30.318L77.3915 34H75.8795L73.7515 30.934H72.7715V34H71.5115V27ZM80.9632 34.112C79.9645 34.112 79.1759 33.818 78.5972 33.23C78.0279 32.642 77.7432 31.7973 77.7432 30.696V30.304C77.7432 29.212 78.0325 28.372 78.6112 27.784C79.1899 27.1867 79.9739 26.888 80.9632 26.888C81.9619 26.888 82.7459 27.182 83.3152 27.77C83.8939 28.358 84.1832 29.2027 84.1832 30.304V30.696C84.1832 31.788 83.8939 32.6327 83.3152 33.23C82.7365 33.818 81.9525 34.112 80.9632 34.112ZM80.9632 32.964C81.5512 32.964 82.0132 32.782 82.3492 32.418C82.6945 32.0447 82.8672 31.4707 82.8672 30.696V30.304C82.8672 29.5387 82.6945 28.9693 82.3492 28.596C82.0132 28.2227 81.5512 28.036 80.9632 28.036C80.3752 28.036 79.9085 28.2227 79.5632 28.596C79.2272 28.96 79.0592 29.5293 79.0592 30.304V30.696C79.0592 31.4613 79.2272 32.0307 79.5632 32.404C79.9085 32.7773 80.3752 32.964 80.9632 32.964ZM85.5805 27H87.4565L89.3185 30.99H89.3465L91.2085 27H93.0005V34H91.7405V28.54H91.7125L89.9205 32.39H88.6605L86.8685 28.54H86.8405V34H85.5805V27ZM94.8161 27H100.556V34H99.2961V28.148H96.0761V34H94.8161V27ZM105.17 34.112C104.675 34.112 104.227 34.0373 103.826 33.888C103.434 33.7293 103.098 33.5053 102.818 33.216C102.538 32.9173 102.323 32.558 102.174 32.138C102.025 31.718 101.95 31.2373 101.95 30.696V30.304C101.95 29.7627 102.025 29.282 102.174 28.862C102.323 28.4327 102.533 28.0733 102.804 27.784C103.084 27.4947 103.415 27.2753 103.798 27.126C104.19 26.9673 104.624 26.888 105.1 26.888C105.576 26.888 106.005 26.9673 106.388 27.126C106.78 27.2753 107.111 27.4993 107.382 27.798C107.662 28.0967 107.877 28.4607 108.026 28.89C108.175 29.3193 108.25 29.814 108.25 30.374V30.878H103.266C103.285 31.5407 103.453 32.054 103.77 32.418C104.097 32.782 104.54 32.964 105.1 32.964C105.548 32.964 105.917 32.88 106.206 32.712C106.495 32.544 106.715 32.2733 106.864 31.9H108.18C108.012 32.628 107.667 33.1787 107.144 33.552C106.631 33.9253 105.973 34.112 105.17 34.112ZM105.1 28.036C104.568 28.036 104.148 28.19 103.84 28.498C103.532 28.806 103.345 29.254 103.28 29.842H106.934C106.822 28.638 106.211 28.036 105.1 28.036ZM110.777 28.148H108.537V27H114.277V28.148H112.037V34H110.777V28.148ZM117.79 34.112C117.295 34.112 116.847 34.0373 116.446 33.888C116.054 33.7293 115.718 33.5053 115.438 33.216C115.158 32.9173 114.943 32.558 114.794 32.138C114.644 31.718 114.57 31.2373 114.57 30.696V30.304C114.57 29.7627 114.644 29.282 114.794 28.862C114.943 28.4327 115.153 28.0733 115.424 27.784C115.704 27.4947 116.035 27.2753 116.418 27.126C116.81 26.9673 117.244 26.888 117.72 26.888C118.196 26.888 118.625 26.9673 119.008 27.126C119.4 27.2753 119.731 27.4993 120.002 27.798C120.282 28.0967 120.496 28.4607 120.646 28.89C120.795 29.3193 120.87 29.814 120.87 30.374V30.878H115.886C115.904 31.5407 116.072 32.054 116.39 32.418C116.716 32.782 117.16 32.964 117.72 32.964C118.168 32.964 118.536 32.88 118.826 32.712C119.115 32.544 119.334 32.2733 119.484 31.9H120.8C120.632 32.628 120.286 33.1787 119.764 33.552C119.25 33.9253 118.592 34.112 117.79 34.112ZM117.72 28.036C117.188 28.036 116.768 28.19 116.46 28.498C116.152 28.806 115.965 29.254 115.9 29.842H119.554C119.442 28.638 118.83 28.036 117.72 28.036ZM122.27 27H123.53V29.856H127.03V27H128.29V34H127.03V31.004H123.53V34H122.27V27ZM131.511 28.148H129.271V27H135.011V28.148H132.771V34H131.511V28.148ZM135.997 27H137.257V29.856H140.757V27H142.017V34H140.757V31.004H137.257V34H135.997V27ZM146.638 34.112C145.64 34.112 144.851 33.818 144.272 33.23C143.703 32.642 143.418 31.7973 143.418 30.696V30.304C143.418 29.212 143.708 28.372 144.286 27.784C144.865 27.1867 145.649 26.888 146.638 26.888C147.637 26.888 148.421 27.182 148.99 27.77C149.569 28.358 149.858 29.2027 149.858 30.304V30.696C149.858 31.788 149.569 32.6327 148.99 33.23C148.412 33.818 147.628 34.112 146.638 34.112ZM146.638 32.964C147.226 32.964 147.688 32.782 148.024 32.418C148.37 32.0447 148.542 31.4707 148.542 30.696V30.304C148.542 29.5387 148.37 28.9693 148.024 28.596C147.688 28.2227 147.226 28.036 146.638 28.036C146.05 28.036 145.584 28.2227 145.238 28.596C144.902 28.96 144.734 29.5293 144.734 30.304V30.696C144.734 31.4613 144.902 32.0307 145.238 32.404C145.584 32.7773 146.05 32.964 146.638 32.964ZM153.916 34.112C152.973 34.112 152.222 33.818 151.662 33.23C151.111 32.642 150.836 31.774 150.836 30.626V30.234C150.836 29.702 150.91 29.2307 151.06 28.82C151.209 28.4093 151.414 28.0593 151.676 27.77C151.946 27.4807 152.268 27.2613 152.642 27.112C153.024 26.9627 153.449 26.888 153.916 26.888C154.354 26.888 154.742 26.9487 155.078 27.07C155.423 27.182 155.717 27.336 155.96 27.532C156.202 27.728 156.398 27.9613 156.548 28.232C156.697 28.5027 156.8 28.792 156.856 29.1H155.54C155.437 28.8013 155.26 28.5493 155.008 28.344C154.765 28.1387 154.424 28.036 153.986 28.036C153.426 28.036 152.978 28.218 152.642 28.582C152.315 28.9367 152.152 29.4873 152.152 30.234V30.626C152.152 31.438 152.315 32.0307 152.642 32.404C152.978 32.7773 153.426 32.964 153.986 32.964C154.424 32.964 154.765 32.8567 155.008 32.642C155.26 32.418 155.437 32.124 155.54 31.76H156.856C156.8 32.1053 156.697 32.4227 156.548 32.712C156.398 32.992 156.202 33.2393 155.96 33.454C155.717 33.6593 155.423 33.8227 155.078 33.944C154.742 34.056 154.354 34.112 153.916 34.112ZM159.444 28.148H157.204V27H162.944V28.148H160.704V34H159.444V28.148ZM163.93 27H165.19V32.46H165.218L168.27 27H169.95V34H168.69V28.54H168.662L165.61 34H163.93V27ZM175.061 24.2H180.871V25.404H176.377V34H175.061V24.2ZM185.412 34.112C184.778 34.112 184.204 34.0093 183.69 33.804C183.177 33.5987 182.734 33.2953 182.36 32.894C181.996 32.4927 181.712 31.998 181.506 31.41C181.31 30.8127 181.212 30.1313 181.212 29.366V28.694C181.212 27.966 181.31 27.3173 181.506 26.748C181.712 26.1787 181.996 25.698 182.36 25.306C182.734 24.9047 183.177 24.6013 183.69 24.396C184.213 24.1907 184.787 24.088 185.412 24.088C186.038 24.088 186.607 24.1907 187.12 24.396C187.643 24.6013 188.086 24.9 188.45 25.292C188.824 25.684 189.108 26.1693 189.304 26.748C189.51 27.3173 189.612 27.966 189.612 28.694V29.366C189.612 30.1313 189.51 30.808 189.304 31.396C189.108 31.984 188.824 32.4787 188.45 32.88C188.086 33.2813 187.643 33.5893 187.12 33.804C186.607 34.0093 186.038 34.112 185.412 34.112ZM185.412 32.908C186.252 32.908 186.934 32.6187 187.456 32.04C187.979 31.452 188.24 30.5607 188.24 29.366V28.694C188.24 28.134 188.17 27.644 188.03 27.224C187.89 26.7947 187.694 26.44 187.442 26.16C187.2 25.8707 186.906 25.656 186.56 25.516C186.215 25.3667 185.832 25.292 185.412 25.292C184.992 25.292 184.61 25.362 184.264 25.502C183.919 25.642 183.62 25.8567 183.368 26.146C183.116 26.426 182.92 26.7807 182.78 27.21C182.65 27.63 182.584 28.1247 182.584 28.694V29.366C182.584 29.9633 182.654 30.486 182.794 30.934C182.934 31.3727 183.13 31.7413 183.382 32.04C183.634 32.3293 183.933 32.5487 184.278 32.698C184.624 32.838 185.002 32.908 185.412 32.908ZM195.002 34.112C194.386 34.112 193.826 34.0093 193.322 33.804C192.818 33.5987 192.384 33.2953 192.02 32.894C191.656 32.4927 191.371 31.998 191.166 31.41C190.97 30.8127 190.872 30.1313 190.872 29.366V28.694C190.872 27.966 190.97 27.3173 191.166 26.748C191.371 26.1787 191.656 25.698 192.02 25.306C192.384 24.9047 192.818 24.6013 193.322 24.396C193.835 24.1907 194.395 24.088 195.002 24.088C195.562 24.088 196.061 24.1673 196.5 24.326C196.948 24.4847 197.331 24.704 197.648 24.984C197.975 25.2547 198.236 25.5767 198.432 25.95C198.637 26.314 198.777 26.7107 198.852 27.14H197.452C197.377 26.8787 197.27 26.636 197.13 26.412C196.999 26.188 196.831 25.992 196.626 25.824C196.43 25.656 196.192 25.5253 195.912 25.432C195.641 25.3387 195.338 25.292 195.002 25.292C194.61 25.292 194.241 25.3667 193.896 25.516C193.56 25.656 193.271 25.8707 193.028 26.16C192.785 26.4493 192.594 26.804 192.454 27.224C192.314 27.644 192.244 28.134 192.244 28.694V29.366C192.244 29.954 192.314 30.472 192.454 30.92C192.594 31.3587 192.785 31.7273 193.028 32.026C193.28 32.3153 193.574 32.5347 193.91 32.684C194.246 32.8333 194.61 32.908 195.002 32.908C195.683 32.908 196.225 32.726 196.626 32.362C197.037 31.9887 197.312 31.508 197.452 30.92H198.852C198.777 31.3867 198.637 31.816 198.432 32.208C198.236 32.5907 197.975 32.9267 197.648 33.216C197.331 33.496 196.948 33.7153 196.5 33.874C196.061 34.0327 195.562 34.112 195.002 34.112ZM202.179 25.404H199.057V24.2H206.617V25.404H203.495V34H202.179V25.404ZM207.036 34.112C206.756 34.112 206.528 34.0233 206.35 33.846C206.182 33.6687 206.098 33.4447 206.098 33.174C206.098 32.9033 206.182 32.6793 206.35 32.502C206.528 32.3247 206.756 32.236 207.036 32.236C207.316 32.236 207.54 32.3247 207.708 32.502C207.886 32.6793 207.974 32.9033 207.974 33.174C207.974 33.4447 207.886 33.6687 207.708 33.846C207.54 34.0233 207.316 34.112 207.036 34.112ZM209.974 24.2H213.264C214.477 24.2 215.373 24.4707 215.952 25.012C216.54 25.544 216.834 26.2673 216.834 27.182C216.834 27.8353 216.68 28.3953 216.372 28.862C216.073 29.3287 215.611 29.674 214.986 29.898L217.114 34H215.63L213.698 30.15C213.623 30.1593 213.548 30.164 213.474 30.164C213.408 30.164 213.338 30.164 213.264 30.164H211.29V34H209.974V24.2ZM213.194 28.96C214.006 28.96 214.584 28.806 214.93 28.498C215.284 28.19 215.462 27.7513 215.462 27.182C215.462 26.622 215.284 26.188 214.93 25.88C214.575 25.5627 213.996 25.404 213.194 25.404H211.29V28.96H213.194ZM222.017 34.112C221.438 34.112 220.916 34.0233 220.449 33.846C219.982 33.6687 219.586 33.412 219.259 33.076C218.932 32.7307 218.68 32.3153 218.503 31.83C218.326 31.3353 218.237 30.7753 218.237 30.15V24.2H219.553V30.08C219.553 31.0133 219.777 31.718 220.225 32.194C220.673 32.67 221.27 32.908 222.017 32.908C222.773 32.908 223.37 32.6747 223.809 32.208C224.257 31.732 224.481 31.0227 224.481 30.08V24.2H225.797V30.15C225.797 30.766 225.708 31.3213 225.531 31.816C225.354 32.3013 225.097 32.7167 224.761 33.062C224.434 33.398 224.038 33.6593 223.571 33.846C223.104 34.0233 222.586 34.112 222.017 34.112ZM228.249 34.112C227.969 34.112 227.741 34.0233 227.563 33.846C227.395 33.6687 227.311 33.4447 227.311 33.174C227.311 32.9033 227.395 32.6793 227.563 32.502C227.741 32.3247 227.969 32.236 228.249 32.236C228.529 32.236 228.753 32.3247 228.921 32.502C229.099 32.6793 229.187 32.9033 229.187 33.174C229.187 33.4447 229.099 33.6687 228.921 33.846C228.753 34.0233 228.529 34.112 228.249 34.112ZM230.626 32.796L233.972 29.562C234.57 28.974 235.004 28.4933 235.274 28.12C235.554 27.7373 235.694 27.3687 235.694 27.014C235.694 26.5193 235.526 26.118 235.19 25.81C234.854 25.502 234.406 25.348 233.846 25.348C233.286 25.348 232.838 25.5067 232.502 25.824C232.166 26.132 231.998 26.5473 231.998 27.07H230.626C230.626 26.6313 230.701 26.23 230.85 25.866C231.009 25.502 231.228 25.1893 231.508 24.928C231.788 24.6573 232.124 24.452 232.516 24.312C232.918 24.1627 233.361 24.088 233.846 24.088C234.332 24.088 234.77 24.1627 235.162 24.312C235.564 24.452 235.904 24.6527 236.184 24.914C236.464 25.1753 236.679 25.488 236.828 25.852C236.987 26.2067 237.066 26.594 237.066 27.014C237.066 27.5367 236.884 28.064 236.52 28.596C236.156 29.128 235.629 29.716 234.938 30.36L232.362 32.796H237.066V34H230.626V32.796ZM238.044 32.796L241.39 29.562C241.987 28.974 242.421 28.4933 242.692 28.12C242.972 27.7373 243.112 27.3687 243.112 27.014C243.112 26.5193 242.944 26.118 242.608 25.81C242.272 25.502 241.824 25.348 241.264 25.348C240.704 25.348 240.256 25.5067 239.92 25.824C239.584 26.132 239.416 26.5473 239.416 27.07H238.044C238.044 26.6313 238.118 26.23 238.268 25.866C238.426 25.502 238.646 25.1893 238.926 24.928C239.206 24.6573 239.542 24.452 239.934 24.312C240.335 24.1627 240.778 24.088 241.264 24.088C241.749 24.088 242.188 24.1627 242.58 24.312C242.981 24.452 243.322 24.6527 243.602 24.914C243.882 25.1753 244.096 25.488 244.246 25.852C244.404 26.2067 244.484 26.594 244.484 27.014C244.484 27.5367 244.302 28.064 243.938 28.596C243.574 29.128 243.046 29.716 242.356 30.36L239.78 32.796H244.484V34H238.044V32.796ZM247.225 25.656L245.181 27.042V25.614L247.225 24.2H248.541V34H247.225V25.656ZM250.076 32.796L253.422 29.562C254.019 28.974 254.453 28.4933 254.724 28.12C255.004 27.7373 255.144 27.3687 255.144 27.014C255.144 26.5193 254.976 26.118 254.64 25.81C254.304 25.502 253.856 25.348 253.296 25.348C252.736 25.348 252.288 25.5067 251.952 25.824C251.616 26.132 251.448 26.5473 251.448 27.07H250.076C250.076 26.6313 250.15 26.23 250.3 25.866C250.458 25.502 250.678 25.1893 250.958 24.928C251.238 24.6573 251.574 24.452 251.966 24.312C252.367 24.1627 252.81 24.088 253.296 24.088C253.781 24.088 254.22 24.1627 254.612 24.312C255.013 24.452 255.354 24.6527 255.634 24.914C255.914 25.1753 256.128 25.488 256.278 25.852C256.436 26.2067 256.516 26.594 256.516 27.014C256.516 27.5367 256.334 28.064 255.97 28.596C255.606 29.128 255.078 29.716 254.388 30.36L251.812 32.796H256.516V34H250.076V32.796ZM261.063 34.112C260.512 34.112 260.027 34.042 259.607 33.902C259.196 33.762 258.846 33.5707 258.557 33.328C258.277 33.076 258.062 32.7773 257.913 32.432C257.773 32.0867 257.703 31.7087 257.703 31.298C257.703 30.7287 257.847 30.2433 258.137 29.842C258.435 29.4407 258.827 29.1233 259.313 28.89C258.902 28.6753 258.575 28.3907 258.333 28.036C258.099 27.6813 257.983 27.2473 257.983 26.734C257.983 26.3607 258.057 26.0153 258.207 25.698C258.356 25.3713 258.561 25.0913 258.823 24.858C259.093 24.6153 259.415 24.4287 259.789 24.298C260.171 24.158 260.596 24.088 261.063 24.088C261.539 24.088 261.963 24.1533 262.337 24.284C262.719 24.4147 263.041 24.5967 263.303 24.83C263.573 25.0633 263.779 25.3433 263.919 25.67C264.068 25.9967 264.143 26.3513 264.143 26.734C264.143 27.238 264.017 27.6673 263.765 28.022C263.522 28.3767 263.195 28.6613 262.785 28.876C263.279 29.1093 263.676 29.4313 263.975 29.842C264.273 30.2433 264.423 30.7287 264.423 31.298C264.423 31.6993 264.348 32.0727 264.199 32.418C264.049 32.754 263.83 33.048 263.541 33.3C263.261 33.552 262.911 33.7527 262.491 33.902C262.071 34.042 261.595 34.112 261.063 34.112ZM261.063 28.358C261.268 28.33 261.473 28.2833 261.679 28.218C261.884 28.1433 262.066 28.0453 262.225 27.924C262.393 27.7933 262.523 27.6347 262.617 27.448C262.719 27.252 262.771 27.0187 262.771 26.748C262.771 26.5707 262.733 26.398 262.659 26.23C262.584 26.062 262.472 25.9127 262.323 25.782C262.183 25.6513 262.005 25.5487 261.791 25.474C261.576 25.39 261.333 25.348 261.063 25.348C260.792 25.348 260.549 25.39 260.335 25.474C260.12 25.5487 259.938 25.6513 259.789 25.782C259.649 25.9127 259.541 26.062 259.467 26.23C259.392 26.398 259.355 26.5707 259.355 26.748C259.355 27.0093 259.406 27.2333 259.509 27.42C259.621 27.6067 259.756 27.7653 259.915 27.896C260.083 28.0267 260.265 28.1293 260.461 28.204C260.666 28.2787 260.867 28.33 261.063 28.358ZM261.063 32.852C261.38 32.852 261.66 32.81 261.903 32.726C262.155 32.642 262.365 32.53 262.533 32.39C262.701 32.2407 262.827 32.0727 262.911 31.886C263.004 31.69 263.051 31.4893 263.051 31.284C263.051 31.004 262.995 30.7567 262.883 30.542C262.771 30.3273 262.621 30.1453 262.435 29.996C262.257 29.8373 262.047 29.7113 261.805 29.618C261.571 29.5247 261.324 29.464 261.063 29.436C260.792 29.464 260.535 29.5247 260.293 29.618C260.05 29.702 259.835 29.8233 259.649 29.982C259.471 30.1313 259.331 30.3133 259.229 30.528C259.126 30.7427 259.075 30.9947 259.075 31.284C259.075 31.4987 259.117 31.6993 259.201 31.886C259.294 32.0727 259.425 32.2407 259.593 32.39C259.761 32.53 259.966 32.642 260.209 32.726C260.461 32.81 260.745 32.852 261.063 32.852Z"
        fill="#A2AABA" />
    <defs>
        <clipPath id="clip0_218_3464">
            <rect width="50.4615" height="40" fill="white" />
        </clipPath>
    </defs>
</svg>