<svg width="1200" height="600" viewBox="0 0 1200 600" fill="none" xmlns="http://www.w3.org/2000/svg">
    <rect width="1200" height="600" fill="#008B8A" />
    <mask id="mask0_2004_1298" style="mask-type:alpha" maskUnits="userSpaceOnUse" x="0" y="0" width="1200" height="600">
        <rect width="1200" height="600" rx="12" transform="matrix(1 1.74846e-07 1.74846e-07 -1 0 600)" fill="#D9D9D9" />
    </mask>
    <g mask="url(#mask0_2004_1298)">
        <path d="M1034.54 415.183L1089.76 387.858L1034.54 360.53L979.318 387.858L1034.54 415.183Z" fill="#008B8A" />
        <path d="M1144.98 415.183L1200.2 387.858L1144.98 360.53L1089.76 387.858L1144.98 415.183Z" fill="#A5C950" />
        <path d="M868.88 442.511L924.099 415.183L868.88 387.857L813.661 415.182L868.88 442.511Z" fill="#008B8A" />
        <path d="M979.318 442.512L1034.54 415.183L979.318 387.858L924.099 415.183L979.318 442.512Z" fill="#4BBCC0" />
        <path d="M1089.76 442.512L1144.98 415.183L1089.76 387.858L1034.54 415.183L1089.76 442.512Z" fill="#7BC9CE" />
        <path d="M1144.98 415.183L1200.2 442.512L1255.17 415.307L1255.17 415.063L1200.2 387.858L1144.98 415.183Z"
            fill="#7BC9CE" />
        <path d="M924.099 469.837L979.321 442.512L924.099 415.184L868.88 442.512L924.099 469.837Z" fill="#008B8A" />
        <path d="M1034.54 469.837L1089.76 442.512L1034.54 415.184L979.318 442.512L1034.54 469.837Z" fill="#24ABA6" />
        <path d="M1144.98 469.837L1200.2 442.512L1144.98 415.184L1089.76 442.512L1144.98 469.837Z" fill="#4BBCC0" />
        <path d="M758.442 497.164L813.661 469.836L758.442 442.511L703.223 469.836L758.442 497.164Z" fill="#008B8A" />
        <path d="M868.88 497.164L924.099 469.836L868.88 442.511L813.661 469.836L868.88 497.164Z" fill="#008B8A" />
        <path d="M979.318 497.164L1034.54 469.836L979.318 442.511L924.099 469.836L979.318 497.164Z" fill="#008B8A" />
        <path d="M1089.76 497.165L1144.98 469.837L1089.76 442.512L1034.54 469.837L1089.76 497.165Z" fill="#A5C950" />
        <path d="M1144.98 469.837L1200.2 497.165L1255.17 469.96L1255.17 469.717L1200.2 442.512L1144.98 469.837Z"
            fill="#24ABA6" />
        <path d="M813.661 524.489L868.88 497.164L813.661 469.836L758.442 497.164L813.661 524.489Z" fill="#008B8A" />
        <path d="M924.099 524.49L979.321 497.165L924.099 469.837L868.88 497.165L924.099 524.49Z" fill="#A5C950" />
        <path d="M1034.54 524.489L1089.76 497.164L1034.54 469.836L979.318 497.164L1034.54 524.489Z" fill="#4BBCC0" />
        <path d="M1144.98 524.489L1200.2 497.164L1144.98 469.836L1089.76 497.164L1144.98 524.489Z" fill="#4BBCC0" />
        <path d="M758.442 551.817L813.661 524.492L758.442 497.164L703.223 524.492L758.442 551.817Z" fill="#008B8A" />
        <path d="M868.88 551.817L924.099 524.492L868.88 497.164L813.661 524.492L868.88 551.817Z" fill="#24ABA6" />
        <path d="M979.318 551.817L1034.54 524.492L979.318 497.164L924.099 524.492L979.318 551.817Z" fill="#24ABA6" />
        <path d="M1089.76 551.817L1144.98 524.492L1089.76 497.164L1034.54 524.492L1089.76 551.817Z" fill="#24ABA6" />
        <path d="M1144.98 524.492L1200.2 551.817L1255.17 524.612L1255.17 524.369L1200.2 497.164L1144.98 524.492Z"
            fill="#008B8A" />
        <path d="M703.223 579.142L758.442 551.817L703.223 524.489L648 551.817L703.223 579.142Z" fill="#A5C950" />
        <path d="M813.661 579.142L868.88 551.817L813.661 524.489L758.442 551.817L813.661 579.142Z" fill="#4BBCC0" />
        <path d="M924.099 579.142L979.321 551.817L924.099 524.489L868.88 551.817L924.099 579.142Z" fill="#008B8A" />
        <path d="M1034.54 579.142L1089.76 551.817L1034.54 524.489L979.317 551.817L1034.54 579.142Z" fill="#7BC9CE" />
        <path d="M1144.98 579.142L1200.2 551.817L1144.98 524.489L1089.76 551.817L1144.98 579.142Z" fill="#A5C950" />
        <path d="M1089.76 606.471L1200.2 606.471L1144.98 579.143L1089.76 606.471Z" fill="#008B8A" />
        <path d="M979.322 606.471L1089.76 606.471L1089.76 606.471L1034.54 579.143L979.322 606.471Z" fill="#7BC9CE" />
        <path d="M868.88 606.471L868.883 606.471L979.318 606.471L979.321 606.471L924.099 579.143L868.88 606.471Z"
            fill="#A5C950" />
        <path d="M758.442 606.471L868.88 606.471L813.661 579.143L758.442 606.471Z" fill="#4BBCC0" />
        <path d="M703.223 579.145L758.442 606.471L813.661 579.145L758.442 551.817L703.223 579.145Z" fill="#008B8A" />
        <path d="M813.661 579.145L868.88 606.471L924.099 579.145L868.88 551.817L813.661 579.145Z" fill="#7BC9CE" />
        <path d="M924.099 579.145L979.318 606.471L1034.54 579.145L979.318 551.817L924.099 579.145Z" fill="#4BBCC0" />
        <path d="M1034.54 579.145L1089.76 606.471L1144.98 579.145L1089.76 551.817L1034.54 579.145Z" fill="#4BBCC0" />
        <path d="M1144.98 579.145L1200.2 606.471L1255.17 579.266L1255.17 579.022L1200.2 551.817L1144.98 579.145Z"
            fill="#4BBCC0" />
    </g>
</svg>