<svg width="250" height="103" viewBox="0 0 250 103" fill="none" xmlns="http://www.w3.org/2000/svg">
    <path d="M160.737 52.6896L183.578 39.5032L160.737 26.3154L137.896 39.5032L160.737 52.6896Z" fill="#008B8A" />
    <path d="M206.418 52.6896L229.259 39.5032L206.418 26.3154L183.578 39.5032L206.418 52.6896Z" fill="#A5C950" />
    <path d="M229.259 39.5024L251.998 52.6308L251.998 26.374L229.259 39.5024Z" fill="#24ABA6" />
    <path d="M92.215 65.8742L115.056 52.6864L92.215 39.5L69.3745 52.6864L92.215 65.8742Z" fill="#008B8A" />
    <path d="M137.895 65.8781L160.737 52.6903L137.895 39.5039L115.055 52.6903L137.895 65.8781Z" fill="#4BBCC0" />
    <path d="M183.577 65.8742L206.418 52.6864L183.577 39.5L160.737 52.6864L183.577 65.8742Z" fill="#7BC9CE" />
    <path d="M206.42 52.6883L229.26 65.8761L251.999 52.7478L251.999 52.6303L229.26 39.502L206.42 52.6883Z"
        fill="#7BC9CE" />
    <path d="M229.259 13.1284L251.998 26.2567L251.998 -2.41552e-08L229.259 13.1284Z" fill="#7BC9CE" />
    <path d="M115.054 79.0617L137.896 65.8753L115.054 52.6875L92.2139 65.8753L115.054 79.0617Z" fill="#008B8A" />
    <path d="M160.737 79.0636L183.578 65.8773L160.737 52.6895L137.895 65.8773L160.737 79.0636Z" fill="#24ABA6" />
    <path d="M206.418 79.0636L229.258 65.8773L206.418 52.6895L183.577 65.8773L206.418 79.0636Z" fill="#4BBCC0" />
    <path d="M229.261 65.8784L252 79.0067L252 52.75L229.261 65.8784Z" fill="#4BBCC0" />
    <path d="M46.5312 92.2482L69.3717 79.0604L46.5312 65.874L23.6907 79.0604L46.5312 92.2482Z" fill="#008B8A" />
    <path d="M92.215 92.2482L115.056 79.0604L92.215 65.874L69.3745 79.0604L92.215 92.2482Z" fill="#008B8A" />
    <path d="M137.895 92.2501L160.737 79.0623L137.895 65.876L115.055 79.0623L137.895 92.2501Z" fill="#008B8A" />
    <path d="M183.578 92.2521L206.419 79.0643L183.578 65.8779L160.738 79.0643L183.578 92.2521Z" fill="#A5C950" />
    <path d="M206.418 79.0643L229.258 92.2521L251.997 79.1237L251.997 79.0063L229.258 65.8779L206.418 79.0643Z"
        fill="#24ABA6" />
    <path d="M69.3742 105.436L92.2147 92.2493L69.3742 79.0615L46.5337 92.2493L69.3742 105.436Z" fill="#008B8A" />
    <path d="M115.055 105.436L137.897 92.2493L115.055 79.0615L92.2141 92.2493L115.055 105.436Z" fill="#A5C950" />
    <path d="M160.737 105.436L183.578 92.2493L160.737 79.0615L137.896 92.2493L160.737 105.436Z" fill="#4BBCC0" />
    <path d="M206.416 105.438L229.256 92.2513L206.416 79.0635L183.575 92.2513L206.416 105.438Z" fill="#4BBCC0" />
    <path d="M229.26 92.2543L251.999 105.383L251.999 79.126L229.26 92.2543Z" fill="#4BBCC0" />
    <path d="M46.5314 118.624L69.3719 105.438L46.5314 92.25L23.6909 105.438L46.5314 118.624Z" fill="#008B8A" />
    <path d="M92.2138 118.624L115.054 105.438L92.2138 92.25L69.3733 105.438L92.2138 118.624Z" fill="#24ABA6" />
    <path d="M137.895 118.626L160.737 105.44L137.895 92.252L115.055 105.44L137.895 118.626Z" fill="#24ABA6" />
    <path d="M183.578 118.626L206.418 105.44L183.578 92.252L160.737 105.44L183.578 118.626Z" fill="#24ABA6" />
    <path d="M206.417 105.438L229.258 118.624L251.997 105.496L251.997 105.378L229.258 92.25L206.417 105.438Z"
        fill="#008B8A" />
</svg>