<svg width="331" height="100" viewBox="0 0 331 100" fill="none" xmlns="http://www.w3.org/2000/svg">
    <path
        d="M107.509 42.6179C105.348 40.6847 104.265 38.1816 104.265 35.1349C104.265 32.0883 105.348 29.5852 107.478 27.6784C109.613 25.7452 112.344 24.7764 115.614 24.7764C117.578 24.7764 119.257 25.1183 120.651 25.8285V31.6061C119.029 30.725 117.407 30.2998 115.785 30.2998C114.277 30.2998 113.024 30.7557 112.029 31.6938C111.034 32.6056 110.547 33.7409 110.547 35.1349C110.547 36.529 111.06 37.7257 112.086 38.6331C113.111 39.5142 114.418 39.9701 116.013 39.9701C117.977 39.9701 119.599 39.4879 120.936 38.5454V44.4064C119.568 45.1165 117.806 45.4891 115.671 45.4891C112.401 45.4891 109.67 44.5204 107.505 42.6135"
        fill="#008B8A" />
    <path d="M122.883 25.1758H140.382V30.4406H134.661V45.0907H128.546V30.4406H122.883V25.1758Z" fill="#008B8A" />
    <path
        d="M151.815 25.1758C154.09 25.1758 155.914 25.772 157.277 26.995C158.671 28.2181 159.355 29.7567 159.355 31.6636C159.355 33.5705 158.671 35.1048 157.277 36.3322C155.909 37.5552 154.09 38.1514 151.815 38.1514H148.768V45.0951H142.653V25.1802H151.815V25.1758ZM150.991 33.7108C152.24 33.7108 153.095 32.9699 153.095 31.9178C153.095 30.8658 152.214 30.1556 150.991 30.1556H148.773V33.7108H150.991Z"
        fill="#008B8A" />
    <path
        d="M164.134 27.823C166.155 25.8021 168.715 24.7764 171.788 24.7764C174.861 24.7764 177.394 25.8021 179.411 27.823C181.432 29.8439 182.427 32.2593 182.427 35.1349C182.427 38.0106 181.432 40.4567 179.411 42.4776C177.39 44.4984 174.856 45.4935 171.788 45.4935C168.719 45.4935 166.155 44.4678 164.134 42.4469C162.113 40.426 161.118 37.9799 161.118 35.1349C161.118 32.29 162.113 29.8439 164.134 27.823ZM171.788 39.9131C173.068 39.9131 174.12 39.4572 174.944 38.5761C175.768 37.6643 176.198 36.529 176.198 35.1349C176.198 33.7409 175.773 32.6012 174.944 31.7201C174.12 30.8083 173.068 30.3524 171.788 30.3524C170.508 30.3524 169.456 30.8083 168.627 31.7201C167.803 32.6012 167.373 33.7409 167.373 35.1349C167.373 36.529 167.799 37.6687 168.627 38.5761C169.451 39.4572 170.503 39.9131 171.788 39.9131Z"
        fill="#008B8A" />
    <path
        d="M185.157 45.0907V25.1758H191.075V35.0785L198.755 25.1758H203.792V45.0907H197.931V35.2757L190.365 45.0907H185.157Z"
        fill="#008B8A" />
    <path
        d="M103.327 69.2049C103.897 69.4592 104.353 69.5732 104.721 69.5732C105.431 69.5732 105.944 69.4285 106.286 69.148C106.97 68.5518 107.509 66.3862 107.54 61.6344L107.623 54.9756H123.33V74.8905H117.241V60.236H113.173L113.146 62.6251C113.116 67.4909 112.405 70.8181 111.125 72.6417C109.872 74.4609 108.307 75.1448 106.119 75.1448C104.839 75.1448 103.901 74.9738 103.331 74.6056V69.2006L103.327 69.2049Z"
        fill="#008B8A" />
    <path
        d="M125.329 74.8942L133.522 54.8652H139.352L147.576 74.8942H141.005L139.584 71.1681H133.097L131.646 74.8942H125.329ZM134.859 66.5871H137.792L136.341 61.8659L134.859 66.5871Z"
        fill="#008B8A" />
    <path
        d="M149.579 74.8944V54.9795H164.887V59.9593H155.725V61.5506H158.684C161.104 61.5506 163.037 62.1774 164.488 63.4005C165.939 64.6235 166.649 66.2455 166.649 68.2094C166.649 70.1732 165.908 71.7645 164.457 73.0182C163.006 74.272 161.099 74.8944 158.68 74.8944H149.575H149.579ZM155.725 69.8313H158.202C159.569 69.8313 160.534 69.0335 160.534 67.8981C160.534 66.7627 159.565 65.8773 158.202 65.8773H155.725V69.8313Z"
        fill="#008B8A" />
    <path
        d="M171.559 57.6228C173.58 55.6019 176.14 54.5762 179.213 54.5762C182.286 54.5762 184.819 55.6019 186.836 57.6228C188.857 59.6437 189.852 62.0591 189.852 64.9347C189.852 67.8104 188.857 70.2565 186.836 72.2774C184.815 74.2982 182.281 75.2933 179.213 75.2933C176.144 75.2933 173.58 74.2676 171.559 72.2467C169.538 70.2258 168.543 67.7797 168.543 64.9347C168.543 62.0897 169.538 59.6437 171.559 57.6228ZM179.213 69.7173C180.493 69.7173 181.545 69.2614 182.369 68.3803C183.193 67.4685 183.623 66.3331 183.623 64.9391C183.623 63.5451 183.197 62.4054 182.369 61.5243C181.545 60.6125 180.493 60.1566 179.213 60.1566C177.933 60.1566 176.881 60.6125 176.052 61.5243C175.228 62.4054 174.798 63.5451 174.798 64.9391C174.798 66.3331 175.224 67.4729 176.052 68.3803C176.876 69.2614 177.928 69.7173 179.213 69.7173Z"
        fill="#008B8A" />
    <path
        d="M201.745 54.9756C204.02 54.9756 205.844 55.5718 207.207 56.7948C208.601 58.0179 209.285 59.5565 209.285 61.4634C209.285 63.3703 208.601 64.9046 207.207 66.132C205.839 67.355 204.02 67.9512 201.745 67.9512H198.698V74.8949H192.583V54.98H201.745V54.9756ZM200.921 63.5149C202.17 63.5149 203.025 62.7741 203.025 61.722C203.025 60.67 202.144 59.9598 200.921 59.9598H198.703V63.5149H200.921Z"
        fill="#008B8A" />
    <path
        d="M208.14 74.8942L216.333 54.8652H222.163L230.387 74.8942H223.816L222.396 71.1681H215.908L214.457 74.8942H208.14ZM217.675 66.5871H220.607L219.156 61.8659L217.675 66.5871Z"
        fill="#008B8A" />
    <path d="M229.072 54.9756H246.572V60.2404H240.851V74.8949H234.731V60.2404H229.072V54.9756Z" fill="#008B8A" />
    <path
        d="M251.144 57.6228C253.165 55.6019 255.725 54.5762 258.798 54.5762C261.871 54.5762 264.404 55.6019 266.421 57.6228C268.442 59.6437 269.437 62.0591 269.437 64.9347C269.437 67.8104 268.442 70.2565 266.421 72.2774C264.4 74.2982 261.866 75.2933 258.798 75.2933C255.729 75.2933 253.165 74.2676 251.144 72.2467C249.123 70.2258 248.128 67.7797 248.128 64.9347C248.128 62.0897 249.123 59.6437 251.144 57.6228ZM258.798 69.7173C260.078 69.7173 261.13 69.2614 261.954 68.3803C262.778 67.4685 263.208 66.3331 263.208 64.9391C263.208 63.5451 262.783 62.4054 261.954 61.5243C261.13 60.6125 260.078 60.1566 258.798 60.1566C257.518 60.1566 256.466 60.6125 255.637 61.5243C254.813 62.4054 254.383 63.5451 254.383 64.9391C254.383 66.3331 254.809 67.4729 255.637 68.3803C256.461 69.2614 257.513 69.7173 258.798 69.7173Z"
        fill="#008B8A" />
    <path
        d="M281.33 54.9756C283.605 54.9756 285.429 55.5718 286.792 56.7948C288.186 58.0179 288.87 59.5565 288.87 61.4634C288.87 63.3703 288.186 64.9046 286.792 66.132C285.424 67.355 283.605 67.9512 281.33 67.9512H278.283V74.8949H272.168V54.98H281.33V54.9756ZM280.506 63.5149C281.759 63.5149 282.61 62.7741 282.61 61.722C282.61 60.67 281.729 59.9598 280.506 59.9598H278.288V63.5149H280.506Z"
        fill="#008B8A" />
    <path
        d="M290.996 74.8944V54.9795H296.914V64.8778L304.598 54.9795H309.631V74.8944H303.77V65.0794L296.204 74.8944H290.996Z"
        fill="#008B8A" />
    <path
        d="M311.52 74.8949L317.465 67.0964C315.189 65.9567 313.822 63.8832 313.822 61.3757C313.822 59.5258 314.506 57.9916 315.869 56.7948C317.232 55.5718 319.056 54.9756 321.305 54.9756H330.865V74.8905H324.75V67.7759H323.952L318.604 74.8905H311.52V74.8949ZM324.75 63.3133V60.1001H322.019C320.879 60.1001 320.112 60.6963 320.112 61.6914C320.112 62.6864 320.879 63.3133 322.019 63.3133H324.75Z"
        fill="#008B8A" />
    <path d="M194.661 23.0404L199.119 20.4672L194.661 17.8896L190.203 20.4672L194.661 23.0404Z" fill="#A5C950" />
    <path
        d="M43.3018 100L0 75V25L43.3018 0L86.6035 25V75L43.3018 100ZM4.55899 72.3654L43.3018 94.7352L82.0445 72.3654V27.6302L43.3018 5.26039L4.55899 27.6302V72.3654Z"
        fill="#A5C950" />
    <path d="M43.3015 46.5892L73.8555 28.9494L43.3015 11.3096L12.7474 28.9494L43.3015 46.5892Z" fill="#A5C950" />
    <path
        d="M41.5707 64.8169V53.5904L9.19736 34.8984V68.9507L41.5707 87.647V76.4073L33.9475 72.0061V75.6139L16.8205 65.7243V46.9272L33.9475 56.8167V60.4157L41.5707 64.8169Z"
        fill="#A5C950" />
    <path
        d="M49.7109 50.8589L52.7531 52.6167L45.165 87.5808L53.0468 83.0305L59.5084 52.871L69.7837 46.9399V73.2374L77.4112 68.8363V34.9111L49.7109 50.8589Z"
        fill="#A5C950" />
</svg>