<svg width="250" height="76" viewBox="0 0 250 76" fill="none" xmlns="http://www.w3.org/2000/svg">
    <path
        d="M81.2334 32.2016C79.6005 30.7409 78.7823 28.8496 78.7823 26.5476C78.7823 24.2456 79.6005 22.3543 81.2103 20.9134C82.8233 19.4527 84.8869 18.7207 87.3578 18.7207C88.8417 18.7207 90.1103 18.9791 91.1636 19.5157V23.8812C89.9381 23.2155 88.7125 22.8942 87.487 22.8942C86.3476 22.8942 85.4003 23.2386 84.6484 23.9475C83.8965 24.6364 83.5289 25.4943 83.5289 26.5476C83.5289 27.6009 83.9164 28.5051 84.6915 29.1908C85.4665 29.8566 86.4536 30.201 87.6592 30.201C89.1431 30.201 90.3687 29.8367 91.3789 29.1245V33.553C90.3455 34.0896 89.014 34.3712 87.4009 34.3712C84.9299 34.3712 82.8664 33.6392 81.2301 32.1983"
        fill="white" />
    <path d="M92.8494 19.0225H106.072V23.0005H101.749V34.0701H97.1288V23.0005H92.8494V19.0225Z" fill="white" />
    <path
        d="M114.71 19.0225C116.429 19.0225 117.807 19.4729 118.838 20.3971C119.891 21.3212 120.408 22.4838 120.408 23.9246C120.408 25.3655 119.891 26.5248 118.838 27.4522C117.804 28.3763 116.429 28.8268 114.71 28.8268H112.408V34.0734H107.788V19.0258H114.71V19.0225ZM114.088 25.4714C115.032 25.4714 115.678 24.9117 115.678 24.1167C115.678 23.3218 115.012 22.7852 114.088 22.7852H112.412V25.4714H114.088Z"
        fill="white" />
    <path
        d="M124.019 21.0227C125.546 19.4958 127.48 18.7207 129.802 18.7207C132.124 18.7207 134.038 19.4958 135.562 21.0227C137.089 22.5497 137.841 24.3747 137.841 26.5476C137.841 28.7204 137.089 30.5687 135.562 32.0956C134.035 33.6226 132.12 34.3745 129.802 34.3745C127.483 34.3745 125.546 33.5994 124.019 32.0725C122.492 30.5455 121.74 28.6973 121.74 26.5476C121.74 24.3979 122.492 22.5497 124.019 21.0227ZM129.802 30.158C130.769 30.158 131.564 29.8135 132.187 29.1477C132.809 28.4588 133.134 27.6009 133.134 26.5476C133.134 25.4943 132.813 24.6331 132.187 23.9673C131.564 23.2784 130.769 22.9339 129.802 22.9339C128.835 22.9339 128.04 23.2784 127.414 23.9673C126.791 24.6331 126.466 25.4943 126.466 26.5476C126.466 27.6009 126.788 28.4621 127.414 29.1477C128.036 29.8135 128.831 30.158 129.802 30.158Z"
        fill="white" />
    <path
        d="M139.904 34.0701V19.0225H144.375V26.5049L150.178 19.0225H153.984V34.0701H149.556V26.6539L143.839 34.0701H139.904Z"
        fill="white" />
    <path
        d="M78.0731 52.2907C78.5037 52.4828 78.8482 52.5689 79.1264 52.5689C79.663 52.5689 80.0505 52.4596 80.3089 52.2476C80.8256 51.7972 81.233 50.1609 81.2562 46.5704L81.3191 41.5391H93.187V56.5867H88.5863V45.5138H85.5125L85.4926 47.319C85.4694 50.9956 84.9328 53.5096 83.9656 54.8875C83.0183 56.2621 81.8359 56.7788 80.183 56.7788C79.2159 56.7788 78.507 56.6496 78.0764 56.3714V52.2874L78.0731 52.2907Z"
        fill="white" />
    <path
        d="M94.6979 56.5898L100.889 41.4561H105.294L111.508 56.5898H106.543L105.469 53.7744H100.567L99.4709 56.5898H94.6979ZM101.899 50.3131H104.115L103.018 46.7457L101.899 50.3131Z"
        fill="white" />
    <path
        d="M113.021 56.5901V41.5425H124.588V45.3052H117.665V46.5076H119.901C121.729 46.5076 123.19 46.9812 124.286 47.9053C125.383 48.8295 125.919 50.055 125.919 51.5389C125.919 53.0228 125.359 54.2251 124.263 55.1725C123.167 56.1198 121.726 56.5901 119.897 56.5901H113.018H113.021ZM117.665 52.7644H119.536C120.57 52.7644 121.299 52.1616 121.299 51.3037C121.299 50.4458 120.567 49.7768 119.536 49.7768H117.665V52.7644Z"
        fill="white" />
    <path
        d="M129.629 43.5393C131.156 42.0124 133.09 41.2373 135.412 41.2373C137.734 41.2373 139.649 42.0124 141.172 43.5393C142.699 45.0663 143.451 46.8913 143.451 49.0642C143.451 51.237 142.699 53.0853 141.172 54.6122C139.645 56.1392 137.731 56.8911 135.412 56.8911C133.094 56.8911 131.156 56.116 129.629 54.5891C128.102 53.0621 127.35 51.2138 127.35 49.0642C127.35 46.9145 128.102 45.0663 129.629 43.5393ZM135.412 52.6779C136.379 52.6779 137.174 52.3334 137.797 51.6676C138.42 50.9787 138.744 50.1208 138.744 49.0675C138.744 48.0142 138.423 47.153 137.797 46.4872C137.174 45.7983 136.379 45.4538 135.412 45.4538C134.445 45.4538 133.65 45.7983 133.024 46.4872C132.401 47.153 132.077 48.0142 132.077 49.0675C132.077 50.1208 132.398 50.982 133.024 51.6676C133.647 52.3334 134.442 52.6779 135.412 52.6779Z"
        fill="white" />
    <path
        d="M152.437 41.5391C154.156 41.5391 155.534 41.9895 156.564 42.9137C157.618 43.8378 158.134 45.0004 158.134 46.4412C158.134 47.8821 157.618 49.0414 156.564 49.9688C155.531 50.8929 154.156 51.3434 152.437 51.3434H150.135V56.59H145.515V41.5424H152.437V41.5391ZM151.814 47.9914C152.758 47.9914 153.404 47.4316 153.404 46.6366C153.404 45.8417 152.739 45.3051 151.814 45.3051H150.138V47.9914H151.814Z"
        fill="white" />
    <path
        d="M157.27 56.5898L163.46 41.4561H167.866L174.079 56.5898H169.114L168.041 53.7744H163.139L162.043 56.5898H157.27ZM164.474 50.3131H166.69L165.593 46.7457L164.474 50.3131Z"
        fill="white" />
    <path d="M173.086 41.5391H186.308V45.5171H181.986V56.59H177.362V45.5171H173.086V41.5391Z" fill="white" />
    <path
        d="M189.763 43.5393C191.29 42.0124 193.224 41.2373 195.546 41.2373C197.868 41.2373 199.783 42.0124 201.306 43.5393C202.833 45.0663 203.585 46.8913 203.585 49.0642C203.585 51.237 202.833 53.0853 201.306 54.6122C199.779 56.1392 197.865 56.8911 195.546 56.8911C193.228 56.8911 191.29 56.116 189.763 54.5891C188.236 53.0621 187.484 51.2138 187.484 49.0642C187.484 46.9145 188.236 45.0663 189.763 43.5393ZM195.546 52.6779C196.513 52.6779 197.308 52.3334 197.931 51.6676C198.554 50.9787 198.878 50.1208 198.878 49.0675C198.878 48.0142 198.557 47.153 197.931 46.4872C197.308 45.7983 196.513 45.4538 195.546 45.4538C194.579 45.4538 193.784 45.7983 193.158 46.4872C192.535 47.153 192.211 48.0142 192.211 49.0675C192.211 50.1208 192.532 50.982 193.158 51.6676C193.781 52.3334 194.576 52.6779 195.546 52.6779Z"
        fill="white" />
    <path
        d="M212.571 41.5391C214.29 41.5391 215.668 41.9895 216.698 42.9137C217.752 43.8378 218.268 45.0004 218.268 46.4412C218.268 47.8821 217.752 49.0414 216.698 49.9688C215.665 50.8929 214.29 51.3434 212.571 51.3434H210.269V56.59H205.649V41.5424H212.571V41.5391ZM211.949 47.9914C212.896 47.9914 213.538 47.4316 213.538 46.6366C213.538 45.8417 212.873 45.3051 211.949 45.3051H210.273V47.9914H211.949Z"
        fill="white" />
    <path
        d="M219.875 56.5901V41.5425H224.347V49.0216L230.153 41.5425H233.955V56.5901H229.527V49.1739L223.81 56.5901H219.875Z"
        fill="white" />
    <path
        d="M235.383 56.59L239.874 50.6975C238.155 49.8363 237.122 48.2696 237.122 46.375C237.122 44.9772 237.639 43.8179 238.669 42.9137C239.699 41.9895 241.077 41.5391 242.776 41.5391H250V56.5867H245.379V51.2109H244.777L240.736 56.5867H235.383V56.59ZM245.379 47.839V45.4111H243.316C242.455 45.4111 241.875 45.8616 241.875 46.6135C241.875 47.3653 242.455 47.839 243.316 47.839H245.379Z"
        fill="white" />
    <path d="M147.085 17.4095L150.454 15.4652L147.085 13.5176L143.716 15.4652L147.085 17.4095Z" fill="white" />
    <path
        d="M32.7186 75.5595L0 56.6696V18.8899L32.7186 0L65.4372 18.8899V56.6696L32.7186 75.5595ZM3.44475 54.6789L32.7186 71.5814L61.9924 54.6789V20.8772L32.7186 3.97472L3.44475 20.8772V54.6789Z"
        fill="white" />
    <path d="M32.7185 35.2025L55.805 21.874L32.7185 8.54541L9.63196 21.874L32.7185 35.2025Z" fill="white" />
    <path
        d="M31.4105 48.9754V40.4927L6.94946 26.3691V52.0988L31.4105 66.2257V57.733L25.6505 54.4075V57.1335L12.7095 49.661V35.458L25.6505 42.9305V45.6498L31.4105 48.9754Z"
        fill="white" />
    <path
        d="M37.5614 38.4289L39.8601 39.7571L34.1266 66.1758L40.082 62.7377L44.9643 39.9493L52.7283 35.4678V55.338L58.4916 52.0125V26.3789L37.5614 38.4289Z"
        fill="white" />
</svg>