<svg width="35" height="50" viewBox="0 0 35 50" fill="none" xmlns="http://www.w3.org/2000/svg">
    <g style="mix-blend-mode:difference">
        <path
            d="M32.101 5.20215C31.7624 5.20215 31.4436 5.13867 31.1446 5.01172C30.8483 4.88194 30.5874 4.70421 30.3617 4.47852C30.136 4.25282 29.9583 3.99186 29.8285 3.69564C29.7015 3.39659 29.6381 3.0778 29.6381 2.73926C29.6381 2.40072 29.7015 2.08333 29.8285 1.78711C29.9583 1.48806 30.136 1.22569 30.3617 1C30.5874 0.774306 30.8483 0.597982 31.1446 0.471029C31.4436 0.341254 31.7624 0.276367 32.101 0.276367C32.4423 0.276367 32.7611 0.341254 33.0573 0.471029C33.3564 0.597982 33.6187 0.774306 33.8444 1C34.0701 1.22569 34.2465 1.48806 34.3734 1.78711C34.5004 2.08333 34.5638 2.40072 34.5638 2.73926C34.5638 3.0778 34.5004 3.39659 34.3734 3.69564C34.2465 3.99186 34.0701 4.25282 33.8444 4.47852C33.6187 4.70421 33.3564 4.88194 33.0573 5.01172C32.7611 5.13867 32.4423 5.20215 32.101 5.20215ZM32.101 4.6097C32.448 4.6097 32.7625 4.52648 33.0446 4.36003C33.3268 4.19076 33.551 3.96506 33.7175 3.68294C33.8868 3.398 33.9714 3.08344 33.9714 2.73926C33.9714 2.39507 33.8868 2.08192 33.7175 1.7998C33.551 1.51487 33.3268 1.28917 33.0446 1.12272C32.7625 0.953451 32.448 0.868815 32.101 0.868815C31.7568 0.868815 31.4422 0.953451 31.1573 1.12272C30.8751 1.28917 30.6495 1.51487 30.4802 1.7998C30.3137 2.08192 30.2305 2.39507 30.2305 2.73926C30.2305 3.08344 30.3137 3.398 30.4802 3.68294C30.6495 3.96506 30.8751 4.19076 31.1573 4.36003C31.4422 4.52648 31.7568 4.6097 32.101 4.6097ZM31.2377 3.84798V1.57975H32.3887C32.4818 1.57693 32.5834 1.60232 32.6934 1.65592C32.8034 1.70671 32.8965 1.7857 32.9727 1.8929C33.0517 2.00011 33.0912 2.13553 33.0912 2.29915C33.0912 2.45714 33.0545 2.59256 32.9812 2.7054C32.9078 2.81543 32.8204 2.90148 32.7188 2.96354L33.1843 3.84798H32.6342L32.2321 3.0778H31.737V3.84798H31.2377ZM31.737 2.7054H32.2025C32.2702 2.70823 32.3436 2.67578 32.4226 2.60807C32.5016 2.54036 32.5411 2.43739 32.5411 2.29915C32.5411 2.16092 32.5001 2.06782 32.4183 2.01986C32.3393 1.96908 32.2702 1.94368 32.211 1.94368H31.737V2.7054Z"
            fill="white" />
    </g>
    <g style="mix-blend-mode:difference">
        <path fill-rule="evenodd" clip-rule="evenodd"
            d="M25.5075 41.3888C27.8035 37.5162 29.024 31.9476 29.024 25.5197C29.024 19.0918 27.8035 13.5232 25.5075 9.65062C23.2757 5.88627 20.0756 3.75168 15.7214 3.75168C11.3672 3.75168 8.16699 5.88627 5.93517 9.65062C3.6392 13.5232 2.41867 19.0918 2.41867 25.5197C2.41867 31.9476 3.6392 37.5162 5.93517 41.3888C8.16699 45.1531 11.3672 47.2877 15.7214 47.2877C20.0756 47.2877 23.2757 45.1531 25.5075 41.3888ZM15.7214 49.7064C26.404 49.7064 31.4427 38.8777 31.4427 25.5197C31.4427 12.1618 26.404 1.33301 15.7214 1.33301C5.03869 1.33301 0 12.1618 0 25.5197C0 38.8777 5.03869 49.7064 15.7214 49.7064Z"
            fill="white" />
    </g>
    <path fill-rule="evenodd" clip-rule="evenodd"
        d="M21.1388 25.0936C20.1291 26.1349 18.4503 27.1003 15.767 27.2121C13.613 27.3019 12.47 28.0496 11.8673 28.6712C11.5552 28.993 11.3649 29.305 11.2552 29.5268C11.2004 29.6375 11.1663 29.7245 11.1477 29.7768C11.1384 29.8029 11.1331 29.8201 11.131 29.827C11.13 29.8305 11.1298 29.8313 11.1303 29.8294L11.1316 29.8244L11.1327 29.8203L11.1333 29.8178L11.1337 29.8165C11.1338 29.8158 11.134 29.8151 10.0781 29.5511C9.02222 29.2872 9.0224 29.2864 9.02259 29.2857L9.02298 29.2841L9.02383 29.2808L9.0258 29.2732L9.03085 29.2543C9.03472 29.2402 9.03963 29.2229 9.04568 29.2027C9.05778 29.1623 9.07449 29.11 9.0967 29.0475C9.14109 28.9227 9.2078 28.7561 9.30418 28.5614C9.49677 28.1722 9.81035 27.6654 10.3045 27.1558C11.3143 26.1145 12.9931 25.149 15.6764 25.0372C17.8304 24.9475 18.9734 24.1997 19.5761 23.5782C19.8881 23.2564 20.0785 22.9443 20.1882 22.7225C20.243 22.6118 20.277 22.5249 20.2956 22.4726C20.3049 22.4465 20.3103 22.4293 20.3123 22.4223C20.3134 22.4189 20.3136 22.418 20.3131 22.4199L20.3117 22.4249L20.3107 22.429L20.31 22.4315L20.3097 22.4328C20.3095 22.4335 20.3093 22.4343 21.3652 22.6982C22.4212 22.9622 22.421 22.9629 22.4208 22.9637L22.4204 22.9652L22.4195 22.9686L22.4176 22.9762L22.4125 22.995C22.4086 23.0092 22.4037 23.0264 22.3977 23.0466C22.3856 23.0871 22.3689 23.1393 22.3467 23.2018C22.3023 23.3266 22.2356 23.4932 22.1392 23.688C21.9466 24.0772 21.633 24.5839 21.1388 25.0936Z"
        fill="#FFDF58" />
    <g style="mix-blend-mode:difference">
        <path
            d="M9.34424 22.6973V9.79297H11.4661L14.7398 18.1245C14.8206 18.3208 14.9159 18.569 15.0256 18.8693C15.1411 19.1637 15.2565 19.4697 15.372 19.7873C15.4933 20.0991 15.6001 20.3849 15.6925 20.6447C15.7848 20.3849 15.8888 20.0991 16.0042 19.7873C16.1255 19.4697 16.241 19.1637 16.3507 18.8693C16.4661 18.569 16.5614 18.3208 16.6365 18.1245L19.8582 9.79297H21.9887V22.6973H20.4558V15.2145C20.4558 14.7526 20.4616 14.2387 20.4731 13.6729C20.4847 13.1013 20.4962 12.5355 20.5078 11.9754C20.2595 12.6567 20.0314 13.2803 19.8236 13.8461C19.6157 14.412 19.4425 14.8681 19.3039 15.2145L16.3074 22.6973H15.0256L12.0117 15.2145C11.8789 14.8854 11.7115 14.4553 11.5094 13.9241C11.3073 13.3929 11.0821 12.8069 10.8339 12.166C10.8512 12.6972 10.8627 13.2283 10.8685 13.7595C10.8801 14.2907 10.8858 14.7757 10.8858 15.2145V22.6973H9.34424Z"
            fill="white" />
    </g>
    <g style="mix-blend-mode:difference">
        <path
            d="M9.34424 29.1484V42.0527H11.4661L14.7398 33.7212C14.8206 33.5249 14.9159 33.2767 15.0256 32.9764C15.1411 32.682 15.2565 32.376 15.372 32.0584C15.4933 31.7466 15.6001 31.4608 15.6925 31.201C15.7848 31.4608 15.8888 31.7466 16.0042 32.0584C16.1255 32.376 16.241 32.682 16.3507 32.9764C16.4661 33.2767 16.5614 33.5249 16.6365 33.7212L19.8582 42.0527H21.9887V29.1484H20.4558V36.6312C20.4558 37.0931 20.4616 37.607 20.4731 38.1728C20.4847 38.7444 20.4962 39.3102 20.5078 39.8703C20.2595 39.189 20.0314 38.5654 19.8236 37.9996C19.6157 37.4337 19.4425 36.9776 19.3039 36.6312L16.3074 29.1484H15.0256L12.0117 36.6312C11.8789 36.9603 11.7115 37.3904 11.5094 37.9216C11.3073 38.4528 11.0821 39.0388 10.8339 39.6797C10.8512 39.1485 10.8627 38.6174 10.8685 38.0862C10.8801 37.555 10.8858 37.07 10.8858 36.6312V29.1484H9.34424Z"
            fill="white" />
    </g>
</svg>