<svg width="301" height="174" viewBox="0 0 301 174" fill="none" xmlns="http://www.w3.org/2000/svg">
    <path
        d="M287.446 13.0056C289.046 13.0056 290.306 12.4256 291.246 11.2856C292.186 10.1456 292.646 8.52562 292.646 6.46562C292.646 4.16562 292.106 2.26562 291.006 0.765624C289.906 -0.734376 288.466 -1.47438 286.666 -1.47438C285.546 -1.47438 284.586 -1.19438 283.766 -0.614375L283.766 0.285625C284.626 -0.294375 285.586 -0.594375 286.606 -0.594375C287.726 -0.594376 288.686 -0.254376 289.466 0.405624C291.046 1.76562 291.726 3.90562 291.726 6.48562C291.026 5.02562 289.346 3.92562 287.326 3.92562C286.066 3.92562 285.006 4.34562 284.106 5.16563C283.226 6.00563 282.786 7.06563 282.786 8.34563C282.786 9.68562 283.226 10.8056 284.106 11.6856C285.006 12.5656 286.106 13.0056 287.446 13.0056ZM287.466 12.1256C286.406 12.1256 285.526 11.7656 284.786 11.0456C284.066 10.3456 283.706 9.44563 283.706 8.36563C283.706 7.30563 284.066 6.44562 284.806 5.78562C285.546 5.12563 286.446 4.80562 287.526 4.80562C288.466 4.80562 289.306 5.10562 290.046 5.68562C290.806 6.26562 291.346 7.00562 291.646 7.88562C291.326 10.5456 289.926 12.1256 287.466 12.1256Z"
        fill="#97989A" />
    <path d="M191.612 110.627L218.985 126.43L191.612 142.234L164.238 126.43L191.612 110.627Z" fill="#008B8A" />
    <path d="M246.357 110.627L273.73 126.43L246.357 142.234L218.984 126.43L246.357 110.627Z" fill="#A5C950" />
    <path d="M273.73 126.43L300.981 110.696L300.981 142.163L273.73 126.43Z" fill="#24ABA6" />
    <path d="M109.492 94.8222L136.865 110.627L109.492 126.43L82.1197 110.627L109.492 94.8222Z" fill="#008B8A" />
    <path d="M164.237 94.8222L191.612 110.627L164.237 126.43L136.865 110.627L164.237 94.8222Z" fill="#4BBCC0" />
    <path d="M218.985 94.8222L246.357 110.627L218.985 126.43L191.612 110.627L218.985 94.8222Z" fill="#7BC9CE" />
    <path d="M246.357 110.627L273.73 94.8222L300.981 110.556L300.981 110.696L273.73 126.43L246.357 110.627Z"
        fill="#7BC9CE" />
    <path d="M273.73 158.038L300.981 142.304L300.981 173.771L273.73 158.038Z" fill="#7BC9CE" />
    <path d="M136.865 79.0195L164.239 94.8223L136.865 110.627L109.492 94.8223L136.865 79.0195Z" fill="#008B8A" />
    <path d="M191.612 79.0195L218.985 94.8223L191.612 110.627L164.238 94.8223L191.612 79.0195Z" fill="#24ABA6" />
    <path d="M246.357 79.0195L273.73 94.8223L246.357 110.627L218.984 94.8223L246.357 79.0195Z" fill="#4BBCC0" />
    <path d="M273.73 94.8223L300.981 79.089L300.981 110.556L273.73 94.8223Z" fill="#4BBCC0" />
    <path d="M54.7471 63.2153L82.1198 79.0199L54.7471 94.8228L27.3745 79.0199L54.7471 63.2153Z" fill="#008B8A" />
    <path d="M109.492 63.2153L136.865 79.0199L109.492 94.8228L82.1197 79.0199L109.492 63.2153Z" fill="#008B8A" />
    <path d="M164.237 63.2153L191.612 79.0199L164.237 94.8228L136.865 79.0199L164.237 63.2153Z" fill="#008B8A" />
    <path d="M218.985 63.2153L246.357 79.0199L218.985 94.8228L191.612 79.0199L218.985 63.2153Z" fill="#A5C950" />
    <path d="M246.357 79.0199L273.73 63.2153L300.981 78.9486L300.981 79.0894L273.73 94.8228L246.357 79.0199Z"
        fill="#24ABA6" />
    <path d="M82.1197 47.4121L109.492 63.2149L82.1197 79.0195L54.7471 63.2149L82.1197 47.4121Z" fill="#008B8A" />
    <path d="M136.865 47.4121L164.239 63.2149L136.865 79.0195L109.492 63.2149L136.865 47.4121Z" fill="#A5C950" />
    <path d="M191.612 47.4121L218.985 63.2149L191.612 79.0195L164.238 63.2149L191.612 47.4121Z" fill="#4BBCC0" />
    <path d="M246.357 47.4121L273.73 63.2149L246.357 79.0195L218.984 63.2149L246.357 47.4121Z" fill="#4BBCC0" />
    <path d="M273.73 63.2144L300.981 47.481L300.981 78.9478L273.73 63.2144Z" fill="#4BBCC0" />
    <path d="M54.7471 31.6074L82.1198 47.4102L54.7471 63.2148L27.3745 47.4102L54.7471 31.6074Z" fill="#008B8A" />
    <path d="M109.492 31.6074L136.865 47.4102L109.492 63.2148L82.1197 47.4102L109.492 31.6074Z" fill="#24ABA6" />
    <path d="M164.237 31.6074L191.612 47.4102L164.237 63.2148L136.865 47.4102L164.237 31.6074Z" fill="#24ABA6" />
    <path d="M218.985 31.6069L246.357 47.4097L218.985 63.2144L191.612 47.4097L218.985 31.6069Z" fill="#24ABA6" />
    <path d="M246.357 47.4097L273.73 31.6069L300.981 47.3402L300.981 47.481L273.73 63.2144L246.357 47.4097Z"
        fill="#008B8A" />
    <path d="M27.3744 15.8041L54.747 31.607L27.3744 47.4116L-1.38168e-06 31.607L27.3744 15.8041Z" fill="#A5C950" />
    <path d="M82.1197 15.8041L109.492 31.607L82.1197 47.4116L54.7471 31.607L82.1197 15.8041Z" fill="#4BBCC0" />
    <path d="M136.865 15.8041L164.239 31.607L136.865 47.4116L109.492 31.607L136.865 15.8041Z" fill="#008B8A" />
    <path d="M191.612 15.8041L218.985 31.607L191.612 47.4116L164.238 31.607L191.612 15.8041Z" fill="#7BC9CE" />
    <path d="M246.357 15.8041L273.73 31.607L246.357 47.4116L218.984 31.607L246.357 15.8041Z" fill="#A5C950" />
    <path d="M273.73 31.6075L300.981 15.8741L300.981 47.3408L273.73 31.6075Z" fill="#4BBCC0" />
    <path d="M273.73 4.673e-05L273.732 4.67299e-05L300.981 4.43477e-05L300.981 15.7334L273.73 4.673e-05Z"
        fill="#4BBCC0" />
    <path d="M218.984 8.10623e-05L273.73 7.62763e-05L246.357 15.8047L218.984 8.10623e-05Z" fill="#008B8A" />
    <path d="M164.239 8.10623e-05L218.983 7.62765e-05L218.985 7.62763e-05L191.612 15.8047L164.239 8.10623e-05Z"
        fill="#7BC9CE" />
    <path
        d="M109.492 8.10623e-05L109.494 8.10622e-05L164.238 7.62763e-05L164.239 7.62762e-05L136.865 15.8047L109.492 8.10623e-05Z"
        fill="#A5C950" />
    <path d="M54.7471 8.10623e-05L109.492 7.62763e-05L82.1197 15.8047L54.7471 8.10623e-05Z" fill="#4BBCC0" />
    <path d="M27.3745 15.8028L54.7471 -5.19841e-05L82.1198 15.8028L54.7471 31.6074L27.3745 15.8028Z" fill="#008B8A" />
    <path d="M82.1196 15.8028L109.492 -5.19841e-05L136.865 15.8028L109.492 31.6074L82.1196 15.8028Z" fill="#7BC9CE" />
    <path d="M136.865 15.8028L164.237 -5.19841e-05L191.612 15.8028L164.237 31.6074L136.865 15.8028Z" fill="#4BBCC0" />
    <path d="M191.612 15.8028L218.985 -5.19841e-05L246.357 15.8028L218.985 31.6074L191.612 15.8028Z" fill="#4BBCC0" />
    <path d="M246.357 15.8028L273.73 -5.19841e-05L300.981 15.7333L300.981 15.8741L273.73 31.6074L246.357 15.8028Z"
        fill="#4BBCC0" />
</svg>