<svg width="607" height="295" viewBox="0 0 607 295" fill="none" xmlns="http://www.w3.org/2000/svg">
    <path
        d="M573.703 19.2302C575.303 19.2302 576.563 18.6502 577.503 17.5102C578.443 16.3702 578.903 14.7502 578.903 12.6902C578.903 10.3902 578.363 8.49023 577.263 6.99023C576.163 5.49023 574.723 4.75023 572.923 4.75023C571.803 4.75023 570.843 5.03023 570.023 5.61023L570.023 6.51023C570.883 5.93023 571.843 5.63023 572.863 5.63023C573.983 5.63023 574.943 5.97023 575.723 6.63023C577.303 7.99023 577.983 10.1302 577.983 12.7102C577.283 11.2502 575.603 10.1502 573.583 10.1502C572.323 10.1502 571.263 10.5702 570.363 11.3902C569.483 12.2302 569.043 13.2902 569.043 14.5702C569.043 15.9102 569.483 17.0302 570.363 17.9102C571.263 18.7902 572.363 19.2302 573.703 19.2302ZM573.723 18.3502C572.663 18.3502 571.783 17.9902 571.043 17.2702C570.323 16.5702 569.963 15.6702 569.963 14.5902C569.963 13.5302 570.323 12.6702 571.063 12.0102C571.803 11.3502 572.703 11.0302 573.783 11.0302C574.723 11.0302 575.563 11.3302 576.303 11.9102C577.063 12.4902 577.603 13.2302 577.903 14.1102C577.583 16.7702 576.183 18.3502 573.723 18.3502Z"
        fill="#97989A" />
    <path d="M386.541 185.288L441.76 212.613L386.541 239.941L331.318 212.613L386.541 185.288Z" fill="#008B8A" />
    <path d="M496.978 185.288L552.197 212.613L496.978 239.941L441.759 212.613L496.978 185.288Z" fill="#A5C950" />
    <path d="M552.197 212.613L607.171 185.408L607.171 239.818L552.197 212.613Z" fill="#24ABA6" />
    <path d="M220.88 157.96L276.099 185.288L220.88 212.613L165.661 185.288L220.88 157.96Z" fill="#008B8A" />
    <path d="M331.318 157.96L386.54 185.288L331.318 212.613L276.099 185.288L331.318 157.96Z" fill="#4BBCC0" />
    <path d="M441.759 157.96L496.978 185.288L441.759 212.613L386.54 185.288L441.759 157.96Z" fill="#7BC9CE" />
    <path d="M496.979 185.288L552.198 157.96L607.171 185.164L607.171 185.408L552.198 212.613L496.979 185.288Z"
        fill="#7BC9CE" />
    <path d="M552.198 267.266L607.171 240.061L607.171 294.471L552.198 267.266Z" fill="#7BC9CE" />
    <path d="M276.099 130.635L331.321 157.96L276.099 185.288L220.88 157.96L276.099 130.635Z" fill="#008B8A" />
    <path d="M386.541 130.635L441.76 157.96L386.541 185.288L331.318 157.96L386.541 130.635Z" fill="#24ABA6" />
    <path d="M496.978 130.635L552.197 157.96L496.978 185.288L441.759 157.96L496.978 130.635Z" fill="#4BBCC0" />
    <path d="M552.197 157.96L607.171 130.755L607.171 185.165L552.197 157.96Z" fill="#4BBCC0" />
    <path d="M110.442 103.307L165.661 130.635L110.442 157.96L55.2229 130.635L110.442 103.307Z" fill="#008B8A" />
    <path d="M220.88 103.307L276.099 130.635L220.88 157.96L165.661 130.635L220.88 103.307Z" fill="#008B8A" />
    <path d="M331.318 103.307L386.54 130.635L331.318 157.96L276.099 130.635L331.318 103.307Z" fill="#008B8A" />
    <path d="M441.76 103.307L496.979 130.635L441.76 157.96L386.541 130.635L441.76 103.307Z" fill="#A5C950" />
    <path d="M496.979 130.635L552.198 103.307L607.171 130.512L607.171 130.755L552.198 157.96L496.979 130.635Z"
        fill="#24ABA6" />
    <path d="M165.661 75.9816L220.88 103.307L165.661 130.635L110.442 103.307L165.661 75.9816Z" fill="#008B8A" />
    <path d="M276.099 75.9816L331.321 103.307L276.099 130.635L220.88 103.307L276.099 75.9816Z" fill="#A5C950" />
    <path d="M386.54 75.9816L441.759 103.307L386.54 130.635L331.318 103.307L386.54 75.9816Z" fill="#4BBCC0" />
    <path d="M496.978 75.9816L552.197 103.307L496.978 130.635L441.759 103.307L496.978 75.9816Z" fill="#4BBCC0" />
    <path d="M552.198 103.307L607.171 76.1019L607.171 130.512L552.198 103.307Z" fill="#4BBCC0" />
    <path d="M110.442 48.654L165.661 75.979L110.442 103.307L55.2229 75.9791L110.442 48.654Z" fill="#008B8A" />
    <path d="M220.88 48.654L276.099 75.979L220.88 103.307L165.661 75.9791L220.88 48.654Z" fill="#24ABA6" />
    <path d="M331.318 48.654L386.54 75.979L331.318 103.307L276.099 75.9791L331.318 48.654Z" fill="#24ABA6" />
    <path d="M441.76 48.6535L496.979 75.9785L441.76 103.307L386.541 75.9786L441.76 48.6535Z" fill="#24ABA6" />
    <path d="M496.979 75.9786L552.198 48.6535L607.171 75.8583L607.171 76.1017L552.198 103.307L496.979 75.9786Z"
        fill="#008B8A" />
    <path d="M55.2227 21.3288L110.442 48.6538L55.2228 75.9819L0.000230631 48.6539L55.2227 21.3288Z" fill="#A5C950" />
    <path d="M165.661 21.3288L220.88 48.6538L165.661 75.9819L110.442 48.6539L165.661 21.3288Z" fill="#4BBCC0" />
    <path d="M276.099 21.3288L331.321 48.6538L276.099 75.9819L220.88 48.6539L276.099 21.3288Z" fill="#008B8A" />
    <path d="M386.54 21.3288L441.759 48.6538L386.54 75.9819L331.318 48.6539L386.54 21.3288Z" fill="#7BC9CE" />
    <path d="M496.978 21.3288L552.197 48.6538L496.978 75.9819L441.759 48.6539L496.978 21.3288Z" fill="#A5C950" />
    <path d="M552.197 48.6535L607.171 21.4486L607.171 75.8584L552.197 48.6535Z" fill="#4BBCC0" />
    <path d="M552.197 -5.9993L552.201 -5.9993L607.171 -5.99932L607.171 21.2055L552.197 -5.9993Z" fill="#4BBCC0" />
    <path d="M441.759 -5.99946L552.197 -5.9995L496.978 21.3286L441.759 -5.99946Z" fill="#008B8A" />
    <path d="M331.322 -5.99946L441.756 -5.9995L441.76 -5.9995L386.541 21.3286L331.322 -5.99946Z" fill="#7BC9CE" />
    <path d="M220.88 -5.99946L220.883 -5.99946L331.318 -5.9995L331.321 -5.9995L276.099 21.3286L220.88 -5.99946Z"
        fill="#A5C950" />
    <path d="M110.442 -5.99897L220.88 -5.99901L165.661 21.3291L110.442 -5.99897Z" fill="#4BBCC0" />
    <path d="M55.2226 21.3257L110.442 -5.99934L165.661 21.3257L110.442 48.6538L55.2226 21.3257Z" fill="#008B8A" />
    <path d="M165.661 21.3257L220.88 -5.99934L276.099 21.3257L220.88 48.6538L165.661 21.3257Z" fill="#7BC9CE" />
    <path d="M276.099 21.3257L331.318 -5.99934L386.54 21.3257L331.318 48.6538L276.099 21.3257Z" fill="#4BBCC0" />
    <path d="M386.541 21.3257L441.76 -5.99934L496.979 21.3257L441.76 48.6538L386.541 21.3257Z" fill="#4BBCC0" />
    <path d="M496.979 21.3253L552.198 -5.99983L607.171 21.205L607.171 21.4484L552.198 48.6533L496.979 21.3253Z"
        fill="#4BBCC0" />
</svg>