<svg width="9" height="10" viewBox="0 0 9 10" fill="none" xmlns="http://www.w3.org/2000/svg">
    <path
        d="M7.698 4.3163C7.5338 4.3163 7.38267 4.36748 7.25579 4.45278C7.14757 4.13812 6.8509 3.91255 6.50385 3.91255C6.33966 3.91255 6.18852 3.96373 6.06165 4.04903C5.95343 3.73437 5.65676 3.50881 5.30971 3.50881C5.16417 3.50881 5.02796 3.54861 4.91228 3.61685V2.29377C4.91228 1.84832 4.5559 1.48438 4.11556 1.48438C3.67522 1.48438 3.31884 1.84642 3.31884 2.29377V5.73037L2.62661 5.20341C2.21613 4.89065 1.63398 4.93235 1.27014 5.30198C1.03691 5.53892 1.03691 5.92372 1.27014 6.15876L4.10437 9.03808C4.44209 9.38117 4.89362 9.57072 5.37128 9.57072H6.30421C7.51141 9.57072 8.49285 8.57367 8.49285 7.34726V5.1238C8.49472 4.67835 8.13647 4.3163 7.698 4.3163ZM8.09542 7.34916C8.09542 8.3519 7.29124 9.16887 6.30421 9.16887H5.37128C4.99811 9.16887 4.6492 9.02102 4.38611 8.75375L1.55188 5.87443C1.47352 5.79482 1.47352 5.66782 1.55188 5.58821C1.67503 5.4631 1.83922 5.39865 2.00528 5.39865C2.13963 5.39865 2.27583 5.44035 2.38778 5.52755L3.39721 6.29714C3.45692 6.34263 3.53901 6.35021 3.60618 6.31609C3.67336 6.28197 3.71627 6.21184 3.71627 6.13602V2.29377C3.71627 2.0701 3.89539 1.89002 4.1137 1.89002C4.332 1.89002 4.51112 2.07199 4.51112 2.29377V5.32662C4.51112 5.43846 4.60068 5.52945 4.71077 5.52945C4.82085 5.52945 4.91041 5.43846 4.91041 5.32662V4.3163C4.91041 4.09263 5.08954 3.91255 5.30784 3.91255C5.52615 3.91255 5.70527 4.09453 5.70527 4.3163V5.32662C5.70527 5.43846 5.79483 5.52945 5.90491 5.52945C6.015 5.52945 6.10456 5.43846 6.10456 5.32662V4.72005C6.10456 4.49638 6.28368 4.3163 6.50199 4.3163C6.72029 4.3163 6.89941 4.49827 6.89941 4.72005V5.32662C6.89941 5.43846 6.98897 5.52945 7.09906 5.52945C7.20914 5.52945 7.2987 5.43846 7.2987 5.32662V5.1238C7.2987 4.90013 7.47783 4.72005 7.69613 4.72005C7.91444 4.72005 8.09356 4.90202 8.09356 5.1238L8.09542 7.34916Z"
        fill="#0C0D0F" />
    <path
        d="M7.40687 1.99489L8.09164 1.28407L7.40687 0.573242L7.31171 0.67181L7.83415 1.21393H5.31152V1.3542H7.83415L7.31171 1.89633L7.40687 1.99489Z"
        fill="#008B8A" />
    <path fill-rule="evenodd" clip-rule="evenodd"
        d="M7.40734 2.13896L7.17317 1.8964L7.5993 1.45422H5.21191V1.11395H7.5993L7.17317 0.671762L7.40734 0.429199L8.23088 1.28408L7.40734 2.13896ZM7.83454 1.21395H5.31191V1.35422H7.83454L7.3121 1.89634L7.40726 1.99491L8.09203 1.28408L7.40726 0.573256L7.3121 0.671824L7.83454 1.21395Z"
        fill="#008B8A" />
    <path
        d="M0.823439 0.573242L0.138672 1.28407L0.823439 1.99489L0.918597 1.89633L0.396159 1.3542H2.91879V1.21393H0.396159L0.918597 0.67181L0.823439 0.573242Z"
        fill="#008B8A" />
    <path fill-rule="evenodd" clip-rule="evenodd"
        d="M0.823543 0.429199L1.05772 0.671762L0.631587 1.11395H3.01897V1.45422H0.631587L1.05772 1.8964L0.823543 2.13896L0 1.28408L0.823543 0.429199ZM0.396341 1.35422H2.91897V1.21395H0.396341L0.918779 0.671824L0.82362 0.573256L0.138853 1.28408L0.82362 1.99491L0.918779 1.89634L0.396341 1.35422Z"
        fill="#008B8A" />
</svg>