<svg width="211" height="160" viewBox="0 0 211 160" fill="none" xmlns="http://www.w3.org/2000/svg">
    <path d="M191.612 63.1441L218.985 47.3412L191.612 31.5366L164.238 47.3412L191.612 63.1441Z" fill="#008B8A" />
    <path d="M109.492 78.9488L136.865 63.1442L109.492 47.3413L82.1197 63.1442L109.492 78.9488Z" fill="#008B8A" />
    <path d="M164.237 78.9488L191.612 63.1442L164.237 47.3413L136.865 63.1442L164.237 78.9488Z" fill="#4BBCC0" />
    <path d="M218.985 78.9488L246.357 63.1442L218.985 47.3413L191.612 63.1442L218.985 78.9488Z" fill="#7BC9CE" />
    <path d="M136.865 94.7515L164.239 78.9487L136.865 63.144L109.492 78.9486L136.865 94.7515Z" fill="#008B8A" />
    <path d="M191.612 94.7515L218.985 78.9487L191.612 63.144L164.238 78.9486L191.612 94.7515Z" fill="#24ABA6" />
    <path d="M54.7471 110.556L82.1197 94.7511L54.7471 78.9482L27.3744 94.7511L54.7471 110.556Z" fill="#008B8A" />
    <path d="M109.492 110.556L136.865 94.7511L109.492 78.9482L82.1197 94.7511L109.492 110.556Z" fill="#008B8A" />
    <path d="M164.237 110.556L191.612 94.7511L164.237 78.9482L136.865 94.7511L164.237 110.556Z" fill="#008B8A" />
    <path d="M218.985 110.556L246.357 94.7511L218.985 78.9482L191.612 94.7511L218.985 110.556Z" fill="#A5C950" />
    <path d="M82.1197 126.359L109.492 110.556L82.1197 94.7515L54.7471 110.556L82.1197 126.359Z" fill="#008B8A" />
    <path d="M136.865 126.359L164.239 110.556L136.865 94.7515L109.492 110.556L136.865 126.359Z" fill="#A5C950" />
    <path d="M191.612 126.359L218.985 110.556L191.612 94.7515L164.238 110.556L191.612 126.359Z" fill="#4BBCC0" />
    <path d="M54.7471 142.164L82.1197 126.361L54.7471 110.556L27.3744 126.361L54.7471 142.164Z" fill="#008B8A" />
    <path d="M109.492 142.164L136.865 126.361L109.492 110.556L82.1197 126.361L109.492 142.164Z" fill="#24ABA6" />
    <path d="M164.237 142.164L191.612 126.361L164.237 110.556L136.865 126.361L164.237 142.164Z" fill="#24ABA6" />
    <path d="M218.985 142.164L246.357 126.361L218.985 110.557L191.612 126.361L218.985 142.164Z" fill="#24ABA6" />
    <path d="M27.3744 157.967L54.747 142.164L27.3744 126.359L-2.76336e-06 142.164L27.3744 157.967Z" fill="#A5C950" />
    <path d="M82.1197 157.967L109.492 142.164L82.1197 126.359L54.7471 142.164L82.1197 157.967Z" fill="#4BBCC0" />
    <path d="M136.865 157.967L164.239 142.164L136.865 126.359L109.492 142.164L136.865 157.967Z" fill="#008B8A" />
    <path d="M191.612 157.967L218.985 142.164L191.612 126.359L164.238 142.164L191.612 157.967Z" fill="#7BC9CE" />
    <path d="M164.239 173.771L218.983 173.771L218.984 173.771L191.612 157.966L164.239 173.771Z" fill="#7BC9CE" />
    <path d="M109.492 173.771L109.494 173.771L164.238 173.771L164.239 173.771L136.865 157.966L109.492 173.771Z"
        fill="#A5C950" />
    <path d="M54.7471 173.771L109.492 173.771L82.1197 157.966L54.7471 173.771Z" fill="#4BBCC0" />
    <path d="M27.3744 157.968L54.7471 173.771L82.1197 157.968L54.7471 142.164L27.3744 157.968Z" fill="#008B8A" />
    <path d="M82.1196 157.968L109.492 173.771L136.865 157.968L109.492 142.164L82.1196 157.968Z" fill="#7BC9CE" />
    <path d="M136.865 157.968L164.237 173.771L191.612 157.968L164.237 142.164L136.865 157.968Z" fill="#4BBCC0" />
    <path d="M191.612 157.968L218.985 173.771L246.357 157.968L218.985 142.164L191.612 157.968Z" fill="#4BBCC0" />
</svg>