<svg width="129" height="75" viewBox="0 0 129 75" fill="none" xmlns="http://www.w3.org/2000/svg">
    <path
        d="M127.184 3.65992C128.784 3.65992 130.044 3.07992 130.984 1.93992C131.924 0.799921 132.384 -0.820078 132.384 -2.88008C132.384 -5.18008 131.844 -7.08008 130.744 -8.58008C129.644 -10.0801 128.204 -10.8201 126.404 -10.8201C125.284 -10.8201 124.324 -10.5401 123.504 -9.96008L123.504 -9.06008C124.364 -9.64008 125.324 -9.94008 126.344 -9.94008C127.464 -9.94008 128.424 -9.60008 129.204 -8.94008C130.784 -7.58008 131.464 -5.44008 131.464 -2.86008C130.764 -4.32008 129.084 -5.42008 127.064 -5.42008C125.804 -5.42008 124.744 -5.00008 123.844 -4.18008C122.964 -3.34008 122.524 -2.28008 122.524 -1.00008C122.524 0.339922 122.964 1.45992 123.844 2.33992C124.744 3.21992 125.844 3.65992 127.184 3.65992ZM127.204 2.77992C126.144 2.77992 125.264 2.41992 124.524 1.69992C123.804 0.999923 123.444 0.0999225 123.444 -0.980078C123.444 -2.04008 123.804 -2.90008 124.544 -3.56008C125.284 -4.22008 126.184 -4.54008 127.264 -4.54008C128.204 -4.54008 129.044 -4.24008 129.784 -3.66008C130.544 -3.08008 131.084 -2.34008 131.384 -1.46008C131.064 1.19992 129.664 2.77992 127.204 2.77992Z"
        fill="#97989A" />
    <path d="M82.4804 47.8231L94.2631 54.6255L82.4804 61.4287L70.697 54.6255L82.4804 47.8231Z" fill="#008B8A" />
    <path d="M106.046 47.8231L117.828 54.6255L106.046 61.4287L94.2629 54.6255L106.046 47.8231Z" fill="#A5C950" />
    <path d="M117.828 54.6259L129.559 47.8534L129.559 61.3984L117.828 54.6259Z" fill="#24ABA6" />
    <path d="M47.1315 41.0204L58.9142 47.8236L47.1315 54.626L35.3489 47.8236L47.1315 41.0204Z" fill="#008B8A" />
    <path d="M70.697 41.0204L82.4804 47.8236L70.697 54.626L58.9143 47.8236L70.697 41.0204Z" fill="#4BBCC0" />
    <path d="M94.2629 41.0204L106.046 47.8236L94.2629 54.626L82.4802 47.8236L94.2629 41.0204Z" fill="#7BC9CE" />
    <path d="M106.045 47.8236L117.828 41.0204L129.558 47.7929L129.558 47.8535L117.828 54.626L106.045 47.8236Z"
        fill="#7BC9CE" />
    <path d="M117.828 68.2314L129.559 61.4589L129.559 75.0039L117.828 68.2314Z" fill="#7BC9CE" />
    <path d="M58.9143 34.2177L70.6977 41.0201L58.9143 47.8232L47.1316 41.0201L58.9143 34.2177Z" fill="#008B8A" />
    <path d="M82.4804 34.2177L94.2631 41.0201L82.4804 47.8232L70.697 41.0201L82.4804 34.2177Z" fill="#24ABA6" />
    <path d="M106.046 34.2177L117.828 41.0201L106.046 47.8232L94.2629 41.0201L106.046 34.2177Z" fill="#4BBCC0" />
    <path d="M117.828 41.0195L129.559 34.247L129.559 47.792L117.828 41.0195Z" fill="#4BBCC0" />
    <path d="M23.5661 27.4149L35.3488 34.2181L23.5661 41.0205L11.7834 34.2181L23.5661 27.4149Z" fill="#008B8A" />
    <path d="M47.1315 27.4149L58.9142 34.2181L47.1315 41.0205L35.3489 34.2181L47.1315 27.4149Z" fill="#008B8A" />
    <path d="M70.697 27.4149L82.4804 34.2181L70.697 41.0205L58.9143 34.2181L70.697 27.4149Z" fill="#008B8A" />
    <path d="M94.2629 27.4149L106.046 34.2181L94.2629 41.0205L82.4802 34.2181L94.2629 27.4149Z" fill="#A5C950" />
    <path d="M106.046 34.2181L117.828 27.4149L129.559 34.1874L129.559 34.248L117.828 41.0205L106.046 34.2181Z"
        fill="#24ABA6" />
    <path d="M35.3488 20.6122L47.1315 27.4146L35.3488 34.2178L23.5662 27.4146L35.3488 20.6122Z" fill="#008B8A" />
    <path d="M58.9143 20.6122L70.6977 27.4146L58.9143 34.2178L47.1316 27.4146L58.9143 20.6122Z" fill="#A5C950" />
    <path d="M82.4804 20.6122L94.2631 27.4146L82.4804 34.2178L70.697 27.4146L82.4804 20.6122Z" fill="#4BBCC0" />
    <path d="M106.046 20.6122L117.828 27.4146L106.046 34.2178L94.2629 27.4146L106.046 20.6122Z" fill="#4BBCC0" />
    <path d="M117.828 27.414L129.559 20.6415L129.559 34.1865L117.828 27.414Z" fill="#4BBCC0" />
    <path d="M23.5661 13.8095L35.3488 20.6119L23.5661 27.415L11.7834 20.6119L23.5661 13.8095Z" fill="#008B8A" />
    <path d="M47.1315 13.8095L58.9142 20.6119L47.1315 27.415L35.3489 20.6119L47.1315 13.8095Z" fill="#24ABA6" />
    <path d="M70.697 13.8095L82.4804 20.6119L70.697 27.415L58.9143 20.6119L70.697 13.8095Z" fill="#24ABA6" />
    <path d="M94.2629 13.8085L106.046 20.6109L94.2629 27.4141L82.4802 20.6109L94.2629 13.8085Z" fill="#24ABA6" />
    <path d="M106.046 20.6109L117.828 13.8085L129.559 20.581L129.559 20.6416L117.828 27.4141L106.046 20.6109Z"
        fill="#008B8A" />
    <path d="M11.7834 7.00672L23.5661 13.8091L11.7834 20.6123L-5.94751e-07 13.8091L11.7834 7.00672Z" fill="#A5C950" />
    <path d="M35.3488 7.00672L47.1315 13.8091L35.3488 20.6123L23.5662 13.8091L35.3488 7.00672Z" fill="#4BBCC0" />
    <path d="M58.9143 7.00672L70.6977 13.8091L58.9143 20.6123L47.1316 13.8091L58.9143 7.00672Z" fill="#008B8A" />
    <path d="M82.4804 7.00672L94.2631 13.8091L82.4804 20.6123L70.697 13.8091L82.4804 7.00672Z" fill="#7BC9CE" />
    <path d="M106.046 7.00672L117.828 13.8091L106.046 20.6123L94.2629 13.8091L106.046 7.00672Z" fill="#A5C950" />
    <path d="M117.828 13.8095L129.559 7.03704L129.559 20.582L117.828 13.8095Z" fill="#4BBCC0" />
    <path d="M117.828 0.20407L117.829 0.20407L129.559 0.204069L129.559 6.97656L117.828 0.20407Z" fill="#4BBCC0" />
    <path d="M94.2629 0.203671L117.828 0.203668L106.046 7.00683L94.2629 0.203671Z" fill="#008B8A" />
    <path d="M70.6978 0.203671L94.2624 0.203668L94.2631 0.203668L82.4804 7.00683L70.6978 0.203671Z" fill="#7BC9CE" />
    <path d="M47.1316 0.203671L47.1323 0.203671L70.6969 0.203668L70.6977 0.203668L58.9143 7.00683L47.1316 0.203671Z"
        fill="#A5C950" />
    <path d="M23.5662 0.203671L47.1315 0.203668L35.3488 7.00683L23.5662 0.203671Z" fill="#4BBCC0" />
    <path d="M11.7834 7.00543L23.5661 0.203013L35.3488 7.00543L23.5661 13.8086L11.7834 7.00543Z" fill="#008B8A" />
    <path d="M35.3486 7.00543L47.1313 0.203013L58.914 7.00543L47.1313 13.8086L35.3486 7.00543Z" fill="#7BC9CE" />
    <path d="M58.9143 7.00543L70.697 0.203013L82.4804 7.00543L70.697 13.8086L58.9143 7.00543Z" fill="#4BBCC0" />
    <path d="M82.4802 7.00543L94.2629 0.203013L106.046 7.00543L94.2629 13.8086L82.4802 7.00543Z" fill="#4BBCC0" />
    <path d="M106.046 7.00543L117.828 0.203013L129.559 6.97551L129.559 7.03609L117.828 13.8086L106.046 7.00543Z"
        fill="#4BBCC0" />
</svg>