<svg width="564" height="296" viewBox="0 0 564 296" fill="none" xmlns="http://www.w3.org/2000/svg">
    <path
        d="M533.342 271.25C534.942 271.25 536.202 271.83 537.142 272.97C538.082 274.11 538.542 275.73 538.542 277.79C538.542 280.09 538.002 281.99 536.902 283.49C535.802 284.99 534.362 285.73 532.562 285.73C531.442 285.73 530.482 285.45 529.662 284.87L529.662 283.97C530.522 284.55 531.482 284.85 532.502 284.85C533.622 284.85 534.582 284.51 535.362 283.85C536.942 282.49 537.622 280.35 537.622 277.77C536.922 279.23 535.242 280.33 533.222 280.33C531.962 280.33 530.902 279.91 530.002 279.09C529.122 278.25 528.682 277.19 528.682 275.91C528.682 274.57 529.122 273.45 530.002 272.57C530.902 271.69 532.002 271.25 533.342 271.25ZM533.362 272.13C532.302 272.13 531.422 272.49 530.682 273.21C529.962 273.91 529.602 274.81 529.602 275.89C529.602 276.95 529.962 277.81 530.702 278.47C531.442 279.13 532.342 279.45 533.422 279.45C534.362 279.45 535.202 279.15 535.942 278.57C536.702 277.99 537.242 277.25 537.542 276.37C537.222 273.71 535.822 272.13 533.362 272.13Z"
        fill="#97989A" />
    <path d="M359.057 107.876L410.349 81.0023L359.057 54.126L307.76 81.0023L359.057 107.876Z" fill="#008B8A" />
    <path d="M461.642 107.876L512.935 81.0023L461.642 54.126L410.349 81.0023L461.642 107.876Z" fill="#A5C950" />
    <path d="M512.935 81.0022L564 107.757L564 54.2471L512.935 81.0022Z" fill="#24ABA6" />
    <path d="M205.175 134.752L256.468 107.875L205.175 81.002L153.882 107.875L205.175 134.752Z" fill="#008B8A" />
    <path d="M307.76 134.752L359.056 107.875L307.76 81.002L256.467 107.875L307.76 134.752Z" fill="#4BBCC0" />
    <path d="M410.349 134.752L461.642 107.875L410.349 81.002L359.057 107.875L410.349 134.752Z" fill="#7BC9CE" />
    <path d="M461.642 107.875L512.935 134.752L564 107.996L564 107.757L512.935 81.002L461.642 107.875Z" fill="#7BC9CE" />
    <path d="M512.935 27.2522L564 54.0073L564 0.497083L512.935 27.2522Z" fill="#7BC9CE" />
    <path d="M256.467 161.625L307.764 134.751L256.467 107.875L205.175 134.751L256.467 161.625Z" fill="#008B8A" />
    <path d="M359.056 161.625L410.349 134.751L359.056 107.875L307.76 134.751L359.056 161.625Z" fill="#24ABA6" />
    <path d="M461.642 161.625L512.935 134.751L461.642 107.875L410.349 134.751L461.642 161.625Z" fill="#4BBCC0" />
    <path d="M512.935 134.751L564 161.506L564 107.996L512.935 134.751Z" fill="#4BBCC0" />
    <path d="M102.589 188.501L153.882 161.624L102.589 134.751L51.2962 161.624L102.589 188.501Z" fill="#008B8A" />
    <path d="M205.175 188.501L256.468 161.624L205.175 134.751L153.882 161.624L205.175 188.501Z" fill="#008B8A" />
    <path d="M307.76 188.501L359.056 161.624L307.76 134.751L256.467 161.624L307.76 188.501Z" fill="#008B8A" />
    <path d="M410.349 188.501L461.642 161.624L410.349 134.751L359.057 161.624L410.349 188.501Z" fill="#A5C950" />
    <path d="M461.642 161.624L512.935 188.501L564 161.745L564 161.506L512.935 134.751L461.642 161.624Z"
        fill="#24ABA6" />
    <path d="M153.882 215.375L205.175 188.501L153.882 161.625L102.589 188.501L153.882 215.375Z" fill="#008B8A" />
    <path d="M256.467 215.375L307.764 188.501L256.468 161.625L205.175 188.501L256.467 215.375Z" fill="#A5C950" />
    <path d="M359.057 215.375L410.349 188.501L359.057 161.625L307.76 188.501L359.057 215.375Z" fill="#4BBCC0" />
    <path d="M461.642 215.375L512.935 188.501L461.642 161.625L410.349 188.501L461.642 215.375Z" fill="#4BBCC0" />
    <path d="M512.935 188.501L564 215.256L564 161.746L512.935 188.501Z" fill="#4BBCC0" />
    <path d="M102.589 242.251L153.882 215.377L102.589 188.501L51.2962 215.377L102.589 242.251Z" fill="#008B8A" />
    <path d="M205.175 242.251L256.468 215.377L205.175 188.501L153.882 215.377L205.175 242.251Z" fill="#24ABA6" />
    <path d="M307.761 242.251L359.057 215.377L307.761 188.501L256.468 215.377L307.761 242.251Z" fill="#24ABA6" />
    <path d="M410.349 242.251L461.642 215.377L410.349 188.501L359.057 215.377L410.349 242.251Z" fill="#24ABA6" />
    <path d="M461.642 215.377L512.935 242.251L564 215.496L564 215.256L512.935 188.501L461.642 215.377Z"
        fill="#008B8A" />
    <path d="M51.2961 269.124L102.589 242.25L51.2961 215.374L-2.94087e-06 242.25L51.2961 269.124Z" fill="#A5C950" />
    <path d="M153.882 269.124L205.175 242.25L153.882 215.374L102.589 242.25L153.882 269.124Z" fill="#4BBCC0" />
    <path d="M256.467 269.124L307.764 242.25L256.468 215.374L205.175 242.25L256.467 269.124Z" fill="#008B8A" />
    <path d="M359.056 269.124L410.349 242.25L359.056 215.374L307.76 242.25L359.056 269.124Z" fill="#7BC9CE" />
    <path d="M461.642 269.124L512.935 242.25L461.642 215.374L410.349 242.25L461.642 269.124Z" fill="#A5C950" />
    <path d="M512.935 242.25L564 269.005L564 215.495L512.935 242.25Z" fill="#4BBCC0" />
    <path d="M512.935 296L512.938 296L564 296L564 269.245L512.935 296Z" fill="#4BBCC0" />
    <path d="M410.349 296L512.935 296L461.642 269.124L410.349 296Z" fill="#008B8A" />
    <path d="M307.764 296L410.346 296L410.349 296L359.057 269.124L307.764 296Z" fill="#7BC9CE" />
    <path d="M205.175 295.999L205.178 295.999L307.76 295.999L307.764 295.999L256.468 269.123L205.175 295.999Z"
        fill="#A5C950" />
    <path d="M102.589 295.999L205.175 295.999L153.882 269.123L102.589 295.999Z" fill="#4BBCC0" />
    <path d="M51.2962 269.126L102.589 296L153.882 269.126L102.589 242.25L51.2962 269.126Z" fill="#008B8A" />
    <path d="M153.882 269.127L205.175 296.001L256.467 269.127L205.175 242.251L153.882 269.127Z" fill="#7BC9CE" />
    <path d="M256.467 269.127L307.76 296.001L359.056 269.127L307.76 242.251L256.467 269.127Z" fill="#4BBCC0" />
    <path d="M359.057 269.126L410.349 296L461.642 269.126L410.349 242.25L359.057 269.126Z" fill="#4BBCC0" />
    <path d="M461.642 269.127L512.935 296.001L564 269.246L564 269.006L512.935 242.251L461.642 269.127Z"
        fill="#4BBCC0" />
</svg>