<svg width="880" height="500" viewBox="0 0 880 500" fill="none" xmlns="http://www.w3.org/2000/svg">
    <rect width="880" height="500" fill="#008B8A" />
    <mask id="mask0_2017_828" style="mask-type:alpha" maskUnits="userSpaceOnUse" x="0" y="199" width="880" height="300">
        <rect x="880" y="499" width="880" height="300" rx="12" transform="rotate(180 880 499)" fill="#D9D9D9" />
    </mask>
    <g mask="url(#mask0_2017_828)">
        <path
            d="M849.342 474.25C850.942 474.25 852.202 474.83 853.142 475.97C854.082 477.11 854.542 478.73 854.542 480.79C854.542 483.09 854.002 484.99 852.902 486.49C851.802 487.99 850.362 488.73 848.562 488.73C847.442 488.73 846.482 488.45 845.662 487.87L845.662 486.97C846.522 487.55 847.482 487.85 848.502 487.85C849.622 487.85 850.582 487.51 851.362 486.85C852.942 485.49 853.622 483.35 853.622 480.77C852.922 482.23 851.242 483.33 849.222 483.33C847.962 483.33 846.902 482.91 846.002 482.09C845.122 481.25 844.682 480.19 844.682 478.91C844.682 477.57 845.122 476.45 846.002 475.57C846.902 474.69 848.002 474.25 849.342 474.25ZM849.362 475.13C848.302 475.13 847.422 475.49 846.682 476.21C845.962 476.91 845.602 477.81 845.602 478.89C845.602 479.95 845.962 480.81 846.702 481.47C847.442 482.13 848.342 482.45 849.422 482.45C850.362 482.45 851.202 482.15 851.942 481.57C852.702 480.99 853.242 480.25 853.542 479.37C853.222 476.71 851.822 475.13 849.362 475.13Z"
            fill="#97989A" />
        <path d="M675.057 310.876L726.349 284.002L675.057 257.126L623.76 284.002L675.057 310.876Z" fill="#008B8A" />
        <path d="M777.642 310.876L828.935 284.002L777.642 257.126L726.349 284.002L777.642 310.876Z" fill="#A5C950" />
        <path d="M828.935 284.002L880 310.757L880 257.247L828.935 284.002Z" fill="#24ABA6" />
        <path d="M521.175 337.752L572.468 310.875L521.175 284.002L469.882 310.875L521.175 337.752Z" fill="#008B8A" />
        <path d="M623.76 337.752L675.056 310.875L623.76 284.002L572.467 310.875L623.76 337.752Z" fill="#4BBCC0" />
        <path d="M726.349 337.752L777.642 310.875L726.349 284.002L675.057 310.875L726.349 337.752Z" fill="#7BC9CE" />
        <path d="M777.642 310.875L828.935 337.752L880 310.996L880 310.757L828.935 284.002L777.642 310.875Z"
            fill="#7BC9CE" />
        <path d="M828.935 230.252L880 257.007L880 203.497L828.935 230.252Z" fill="#7BC9CE" />
        <path d="M572.467 364.625L623.764 337.751L572.467 310.875L521.175 337.751L572.467 364.625Z" fill="#008B8A" />
        <path d="M675.056 364.625L726.349 337.751L675.056 310.875L623.76 337.751L675.056 364.625Z" fill="#24ABA6" />
        <path d="M777.642 364.625L828.935 337.751L777.642 310.875L726.349 337.751L777.642 364.625Z" fill="#4BBCC0" />
        <path d="M828.935 337.751L880 364.506L880 310.996L828.935 337.751Z" fill="#4BBCC0" />
        <path d="M418.589 391.501L469.882 364.624L418.589 337.751L367.296 364.624L418.589 391.501Z" fill="#008B8A" />
        <path d="M521.175 391.501L572.468 364.624L521.175 337.751L469.882 364.624L521.175 391.501Z" fill="#008B8A" />
        <path d="M623.76 391.501L675.056 364.624L623.76 337.751L572.467 364.624L623.76 391.501Z" fill="#008B8A" />
        <path d="M726.349 391.501L777.642 364.624L726.349 337.751L675.057 364.624L726.349 391.501Z" fill="#A5C950" />
        <path d="M777.642 364.624L828.935 391.501L880 364.745L880 364.506L828.935 337.751L777.642 364.624Z"
            fill="#24ABA6" />
        <path d="M469.882 418.375L521.175 391.501L469.882 364.625L418.589 391.501L469.882 418.375Z" fill="#008B8A" />
        <path d="M572.467 418.375L623.764 391.501L572.468 364.625L521.175 391.501L572.467 418.375Z" fill="#A5C950" />
        <path d="M675.057 418.375L726.349 391.501L675.057 364.625L623.76 391.501L675.057 418.375Z" fill="#4BBCC0" />
        <path d="M777.642 418.375L828.935 391.501L777.642 364.625L726.349 391.501L777.642 418.375Z" fill="#4BBCC0" />
        <path d="M828.935 391.501L880 418.256L880 364.746L828.935 391.501Z" fill="#4BBCC0" />
        <path d="M418.589 445.251L469.882 418.377L418.589 391.501L367.296 418.377L418.589 445.251Z" fill="#008B8A" />
        <path d="M521.175 445.251L572.468 418.377L521.175 391.501L469.882 418.377L521.175 445.251Z" fill="#24ABA6" />
        <path d="M623.761 445.251L675.057 418.377L623.761 391.501L572.468 418.377L623.761 445.251Z" fill="#24ABA6" />
        <path d="M726.349 445.251L777.642 418.377L726.349 391.501L675.057 418.377L726.349 445.251Z" fill="#24ABA6" />
        <path d="M777.642 418.377L828.935 445.251L880 418.496L880 418.256L828.935 391.501L777.642 418.377Z"
            fill="#008B8A" />
        <path d="M367.296 472.124L418.589 445.25L367.296 418.374L316 445.25L367.296 472.124Z" fill="#A5C950" />
        <path d="M469.882 472.124L521.175 445.25L469.882 418.374L418.589 445.25L469.882 472.124Z" fill="#4BBCC0" />
        <path d="M572.467 472.124L623.764 445.25L572.468 418.374L521.175 445.25L572.467 472.124Z" fill="#008B8A" />
        <path d="M675.056 472.124L726.349 445.25L675.056 418.374L623.76 445.25L675.056 472.124Z" fill="#7BC9CE" />
        <path d="M777.642 472.124L828.935 445.25L777.642 418.374L726.349 445.25L777.642 472.124Z" fill="#A5C950" />
        <path d="M828.935 445.25L880 472.005L880 418.495L828.935 445.25Z" fill="#4BBCC0" />
        <path d="M828.935 499L828.938 499L880 499L880 472.245L828.935 499Z" fill="#4BBCC0" />
        <path d="M726.349 499L828.935 499L777.642 472.124L726.349 499Z" fill="#008B8A" />
        <path d="M623.764 499L726.346 499L726.349 499L675.057 472.124L623.764 499Z" fill="#7BC9CE" />
        <path d="M521.175 498.999L521.178 498.999L623.76 498.999L623.764 498.999L572.468 472.123L521.175 498.999Z"
            fill="#A5C950" />
        <path d="M418.589 498.999L521.175 498.999L469.882 472.123L418.589 498.999Z" fill="#4BBCC0" />
        <path d="M367.296 472.126L418.589 499L469.882 472.126L418.589 445.25L367.296 472.126Z" fill="#008B8A" />
        <path d="M469.882 472.127L521.175 499.001L572.467 472.127L521.175 445.251L469.882 472.127Z" fill="#7BC9CE" />
        <path d="M572.467 472.127L623.76 499.001L675.056 472.127L623.76 445.251L572.467 472.127Z" fill="#4BBCC0" />
        <path d="M675.057 472.126L726.349 499L777.642 472.126L726.349 445.25L675.057 472.126Z" fill="#4BBCC0" />
        <path d="M777.642 472.127L828.935 499.001L880 472.246L880 472.006L828.935 445.251L777.642 472.127Z"
            fill="#4BBCC0" />
    </g>
</svg>