<svg width="40" height="40" viewBox="0 0 40 40" fill="none" xmlns="http://www.w3.org/2000/svg">
    <g clip-path="url(#clip0_2021_829)">
        <path d="M38.8461 16.3403H28.7715V19.5148H31.1936V23.8598H36.424V19.5148H38.8461V16.3403Z" fill="#A2AABA" />
        <path
            d="M24.1164 12.4349C27.0874 12.4349 30.9893 13.5903 33.7294 15.3897V9.16953C29.4187 6.64663 24.0067 5.10107 19.1699 5.10107C6.62772 5.10107 1 11.7682 1 19.9922C1 28.2201 6.58231 34.8872 19.1737 34.8872C24.0067 34.8872 29.4187 33.3416 33.7331 30.8187V24.9206C31.2012 26.5874 27.5756 27.6481 24.1202 27.6481C19.9723 27.6481 16.6115 24.2425 16.6115 20.0415C16.6115 15.8404 19.9723 12.4349 24.1164 12.4349ZM9.98468 22.1212C9.57972 22.1212 9.18991 22.0719 8.81145 21.9886V18.9164C9.15585 19.1172 9.55701 19.2384 9.98468 19.2384C11.2677 19.2384 12.3046 18.1967 12.3046 16.9163C12.3046 15.6359 11.2639 14.5941 9.98468 14.5941C8.70548 14.5941 7.65714 15.6359 7.65714 16.9163C7.65714 16.9163 7.65714 25.9169 7.65714 28.3564C5.40908 28.3564 4.77705 26.1858 4.77705 26.1858V16.9087C4.77705 14.0297 7.10837 11.7 9.98089 11.7C12.8572 11.7 15.1847 14.0335 15.1847 16.9087C15.1923 19.7877 12.861 22.1212 9.98468 22.1212Z"
            fill="#A2AABA" />
    </g>
    <defs>
        <clipPath id="clip0_2021_829">
            <rect width="37.8462" height="30" fill="white" transform="translate(1 5)" />
        </clipPath>
    </defs>
</svg>